<svg width="12" height="12" viewBox="0 0 12 12" fill="none" xmlns="http://www.w3.org/2000/svg">
<path d="M0.666656 2.66667V9.33333C0.666656 10.8067 3.05466 12 5.99999 12C8.94532 12 11.3333 10.8067 11.3333 9.33333V2.66667H0.666656ZM0.666656 2.66667C0.666656 4.14 3.05466 5.33333 5.99999 5.33333C8.94532 5.33333 11.3333 4.14 11.3333 2.66667H0.666656ZM0.666656 2.66667C0.666656 1.19333 3.05466 0 5.99999 0C8.94532 0 11.3333 1.19333 11.3333 2.66667H0.666656ZM11.3333 6C11.3333 7.47333 8.94532 8.66667 5.99999 8.66667C3.05466 8.66667 0.666656 7.47333 0.666656 6" fill="#C4C4C4"/>
</svg>
