<svg width="526" height="112" viewBox="0 0 526 112" fill="none" xmlns="http://www.w3.org/2000/svg">
<rect x="525.938" width="1" height="112" fill="#2A2A2A"/>
<path d="M0 8C0 3.58172 3.58172 0 8 0H518C522.418 0 526 3.58172 526 8V104C526 108.418 522.418 112 518 112H8.00001C3.58173 112 0 108.418 0 104V8Z" fill="#181818"/>
<path d="M1 11H49V33H1V11Z" fill="#1E1E1E"/>
<path d="M30.9687 26V25.184H33.1767V19.544H31.4607V18.908C31.9167 18.844 32.2967 18.768 32.6007 18.68C32.9047 18.592 33.1807 18.48 33.4287 18.344H34.1607V25.184H36.1647V26H30.9687Z" fill="#828282"/>
<path d="M64.3 48.132C63.948 48.132 63.6107 48.0697 63.288 47.945C62.9727 47.8203 62.694 47.6407 62.452 47.406C62.21 47.164 62.0157 46.8707 61.869 46.526C61.7297 46.174 61.66 45.778 61.66 45.338C61.66 44.8907 61.7297 44.4947 61.869 44.15C62.0157 43.798 62.21 43.501 62.452 43.259C62.694 43.017 62.9727 42.8337 63.288 42.709C63.6107 42.5843 63.948 42.522 64.3 42.522C64.652 42.522 64.9857 42.5843 65.301 42.709C65.6237 42.8337 65.906 43.017 66.148 43.259C66.39 43.501 66.5807 43.798 66.72 44.15C66.8667 44.4947 66.94 44.8907 66.94 45.338C66.94 45.778 66.8667 46.174 66.72 46.526C66.5807 46.8707 66.39 47.164 66.148 47.406C65.906 47.6407 65.6237 47.8203 65.301 47.945C64.9857 48.0697 64.652 48.132 64.3 48.132ZM64.3 47.384C64.5567 47.384 64.7877 47.3363 64.993 47.241C65.2057 47.1383 65.3853 46.999 65.532 46.823C65.686 46.6397 65.8033 46.4233 65.884 46.174C65.9647 45.9247 66.005 45.646 66.005 45.338C66.005 45.03 65.9647 44.7513 65.884 44.502C65.8033 44.2453 65.686 44.0253 65.532 43.842C65.3853 43.6587 65.2057 43.5193 64.993 43.424C64.7877 43.3213 64.5567 43.27 64.3 43.27C64.0433 43.27 63.8087 43.3213 63.596 43.424C63.3907 43.5193 63.211 43.6587 63.057 43.842C62.9103 44.0253 62.7967 44.2453 62.716 44.502C62.6353 44.7513 62.595 45.03 62.595 45.338C62.595 45.646 62.6353 45.9247 62.716 46.174C62.7967 46.4233 62.9103 46.6397 63.057 46.823C63.211 46.999 63.3907 47.1383 63.596 47.241C63.8087 47.3363 64.0433 47.384 64.3 47.384ZM68.6187 48V42.654H69.3667L69.4437 43.567H69.4877C69.7664 43.2663 70.067 43.017 70.3897 42.819C70.7124 42.621 71.0827 42.522 71.5007 42.522C72.1387 42.522 72.6044 42.7053 72.8977 43.072C73.1984 43.4313 73.3487 43.9667 73.3487 44.678V48H72.4467V44.799C72.4467 44.293 72.3514 43.919 72.1607 43.677C71.97 43.4277 71.6547 43.303 71.2147 43.303C71.0534 43.303 70.903 43.325 70.7637 43.369C70.6317 43.4057 70.4997 43.4643 70.3677 43.545C70.2357 43.6257 70.1 43.7283 69.9607 43.853C69.8214 43.9703 69.6747 44.1097 69.5207 44.271V48H68.6187Z" fill="#569CD6"/>
<path d="M200.904 48V42.972H199.236V42.228L200.904 42.168V41.676C200.904 40.964 201.092 40.392 201.468 39.96C201.852 39.528 202.448 39.312 203.256 39.312C203.832 39.312 204.392 39.424 204.936 39.648L204.708 40.392C204.468 40.28 204.244 40.208 204.036 40.176C203.836 40.136 203.608 40.116 203.352 40.116C202.824 40.116 202.444 40.252 202.212 40.524C201.988 40.788 201.876 41.16 201.876 41.64V42.168H204.324V42.972H201.876V48H200.904ZM208.795 48.144C208.411 48.144 208.043 48.076 207.691 47.94C207.347 47.804 207.043 47.608 206.779 47.352C206.515 47.088 206.303 46.768 206.143 46.392C205.991 46.008 205.915 45.576 205.915 45.096C205.915 44.608 205.991 44.176 206.143 43.8C206.303 43.416 206.515 43.092 206.779 42.828C207.043 42.564 207.347 42.364 207.691 42.228C208.043 42.092 208.411 42.024 208.795 42.024C209.179 42.024 209.543 42.092 209.887 42.228C210.239 42.364 210.547 42.564 210.811 42.828C211.075 43.092 211.283 43.416 211.435 43.8C211.595 44.176 211.675 44.608 211.675 45.096C211.675 45.576 211.595 46.008 211.435 46.392C211.283 46.768 211.075 47.088 210.811 47.352C210.547 47.608 210.239 47.804 209.887 47.94C209.543 48.076 209.179 48.144 208.795 48.144ZM208.795 47.328C209.075 47.328 209.327 47.276 209.551 47.172C209.783 47.06 209.979 46.908 210.139 46.716C210.307 46.516 210.435 46.28 210.523 46.008C210.611 45.736 210.655 45.432 210.655 45.096C210.655 44.76 210.611 44.456 210.523 44.184C210.435 43.904 210.307 43.664 210.139 43.464C209.979 43.264 209.783 43.112 209.551 43.008C209.327 42.896 209.075 42.84 208.795 42.84C208.515 42.84 208.259 42.896 208.027 43.008C207.803 43.112 207.607 43.264 207.439 43.464C207.279 43.664 207.155 43.904 207.067 44.184C206.979 44.456 206.935 44.76 206.935 45.096C206.935 45.432 206.979 45.736 207.067 46.008C207.155 46.28 207.279 46.516 207.439 46.716C207.607 46.908 207.803 47.06 208.027 47.172C208.259 47.276 208.515 47.328 208.795 47.328ZM214.143 48V42.168H214.959L215.043 43.548H215.079C215.383 43.076 215.755 42.704 216.195 42.432C216.643 42.16 217.139 42.024 217.683 42.024C217.899 42.024 218.099 42.044 218.283 42.084C218.467 42.116 218.651 42.176 218.835 42.264L218.607 43.116C218.399 43.044 218.223 42.992 218.079 42.96C217.943 42.928 217.759 42.912 217.527 42.912C217.087 42.912 216.663 43.04 216.255 43.296C215.855 43.544 215.479 43.972 215.127 44.58V48H214.143Z" fill="#569CD6"/>
<path d="M229.952 48.144C229.68 48.144 229.424 48.104 229.184 48.024C228.944 47.952 228.732 47.848 228.548 47.712C228.372 47.568 228.232 47.396 228.128 47.196C228.024 46.988 227.972 46.752 227.972 46.488C227.972 46.16 228.048 45.876 228.2 45.636C228.36 45.388 228.608 45.176 228.944 45C229.288 44.824 229.728 44.68 230.264 44.568C230.8 44.456 231.444 44.368 232.196 44.304C232.188 44.104 232.156 43.916 232.1 43.74C232.044 43.564 231.956 43.412 231.836 43.284C231.716 43.148 231.556 43.04 231.356 42.96C231.164 42.88 230.928 42.84 230.648 42.84C230.264 42.84 229.896 42.916 229.544 43.068C229.192 43.212 228.88 43.368 228.608 43.536L228.224 42.864C228.368 42.768 228.536 42.672 228.728 42.576C228.928 42.472 229.136 42.38 229.352 42.3C229.576 42.22 229.812 42.156 230.06 42.108C230.308 42.052 230.56 42.024 230.816 42.024C231.616 42.024 232.208 42.244 232.592 42.684C232.984 43.116 233.18 43.696 233.18 44.424V48H232.376L232.292 47.208H232.256C231.928 47.464 231.564 47.684 231.164 47.868C230.772 48.052 230.368 48.144 229.952 48.144ZM230.216 47.352C230.552 47.352 230.88 47.28 231.2 47.136C231.528 46.984 231.86 46.768 232.196 46.488V44.952C231.572 45 231.048 45.068 230.624 45.156C230.208 45.244 229.872 45.352 229.616 45.48C229.368 45.6 229.192 45.74 229.088 45.9C228.984 46.052 228.932 46.224 228.932 46.416C228.932 46.584 228.968 46.728 229.04 46.848C229.112 46.96 229.204 47.056 229.316 47.136C229.436 47.208 229.572 47.264 229.724 47.304C229.884 47.336 230.048 47.352 230.216 47.352ZM239.079 48.144C238.455 48.144 237.979 47.968 237.651 47.616C237.323 47.264 237.159 46.74 237.159 46.044V40.26H235.083V39.456H238.143V46.116C238.143 46.548 238.247 46.86 238.455 47.052C238.663 47.236 238.943 47.328 239.295 47.328C239.639 47.328 240.003 47.24 240.387 47.064L240.639 47.796C240.367 47.908 240.119 47.992 239.895 48.048C239.671 48.112 239.399 48.144 239.079 48.144ZM246.275 48.144C245.651 48.144 245.175 47.968 244.847 47.616C244.519 47.264 244.355 46.74 244.355 46.044V40.26H242.279V39.456H245.339V46.116C245.339 46.548 245.443 46.86 245.651 47.052C245.859 47.236 246.139 47.328 246.491 47.328C246.835 47.328 247.199 47.24 247.583 47.064L247.835 47.796C247.563 47.908 247.315 47.992 247.091 48.048C246.867 48.112 246.595 48.144 246.275 48.144Z" fill="#569CD6"/>
<path d="M1 55H49V77H1V55Z" fill="#1E1E1E"/>
<path d="M33.2487 70.144C32.5847 70.144 32.0287 70.036 31.5807 69.82C31.1327 69.596 30.7687 69.344 30.4887 69.064L30.9927 68.416C31.2487 68.656 31.5527 68.868 31.9047 69.052C32.2647 69.236 32.6927 69.328 33.1887 69.328C33.4527 69.328 33.6967 69.296 33.9207 69.232C34.1447 69.16 34.3367 69.064 34.4967 68.944C34.6647 68.824 34.7927 68.68 34.8807 68.512C34.9767 68.336 35.0247 68.14 35.0247 67.924C35.0247 67.7 34.9727 67.496 34.8687 67.312C34.7727 67.12 34.6127 66.956 34.3887 66.82C34.1647 66.684 33.8767 66.58 33.5247 66.508C33.1727 66.436 32.7447 66.4 32.2407 66.4V65.644C32.6967 65.644 33.0807 65.608 33.3927 65.536C33.7127 65.464 33.9727 65.364 34.1727 65.236C34.3727 65.108 34.5167 64.956 34.6047 64.78C34.7007 64.604 34.7487 64.416 34.7487 64.216C34.7487 63.84 34.6047 63.544 34.3167 63.328C34.0367 63.112 33.6607 63.004 33.1887 63.004C32.8287 63.004 32.4887 63.076 32.1687 63.22C31.8487 63.364 31.5607 63.552 31.3047 63.784L30.7767 63.16C31.0967 62.88 31.4607 62.652 31.8687 62.476C32.2767 62.292 32.7287 62.2 33.2247 62.2C33.5847 62.2 33.9167 62.244 34.2207 62.332C34.5327 62.42 34.8007 62.548 35.0247 62.716C35.2567 62.876 35.4367 63.076 35.5647 63.316C35.6927 63.556 35.7567 63.832 35.7567 64.144C35.7567 64.608 35.6047 64.988 35.3007 65.284C34.9967 65.58 34.6047 65.808 34.1247 65.968V66.016C34.3807 66.072 34.6207 66.156 34.8447 66.268C35.0767 66.372 35.2807 66.508 35.4567 66.676C35.6327 66.836 35.7687 67.024 35.8647 67.24C35.9687 67.456 36.0207 67.696 36.0207 67.96C36.0207 68.296 35.9487 68.6 35.8047 68.872C35.6607 69.144 35.4607 69.376 35.2047 69.568C34.9567 69.752 34.6647 69.896 34.3287 70C33.9927 70.096 33.6327 70.144 33.2487 70.144Z" fill="#828282"/>
<path d="M102.196 72.112C101.364 71.464 100.704 70.684 100.216 69.772C99.736 68.86 99.496 67.824 99.496 66.664C99.496 65.504 99.736 64.468 100.216 63.556C100.704 62.644 101.364 61.864 102.196 61.216L102.736 61.72C101.928 62.4 101.332 63.14 100.948 63.94C100.572 64.74 100.384 65.648 100.384 66.664C100.384 67.68 100.572 68.588 100.948 69.388C101.332 70.188 101.928 70.928 102.736 71.608L102.196 72.112ZM115.231 70.144C114.951 70.144 114.647 70.076 114.319 69.94C113.999 69.796 113.699 69.6 113.419 69.352H113.383L113.299 70H112.507V61.456H113.491V63.784L113.455 64.912H113.491C113.755 64.64 114.059 64.424 114.403 64.264C114.755 64.104 115.103 64.024 115.447 64.024C115.839 64.024 116.187 64.096 116.491 64.24C116.795 64.376 117.047 64.576 117.247 64.84C117.455 65.096 117.611 65.408 117.715 65.776C117.819 66.136 117.871 66.54 117.871 66.988C117.871 67.484 117.799 67.928 117.655 68.32C117.511 68.712 117.315 69.044 117.067 69.316C116.827 69.588 116.547 69.796 116.227 69.94C115.907 70.076 115.575 70.144 115.231 70.144ZM115.075 69.316C115.331 69.316 115.567 69.264 115.783 69.16C115.999 69.048 116.187 68.896 116.347 68.704C116.507 68.504 116.631 68.26 116.719 67.972C116.807 67.684 116.851 67.36 116.851 67C116.851 66.68 116.819 66.388 116.755 66.124C116.691 65.86 116.591 65.636 116.455 65.452C116.327 65.26 116.159 65.112 115.951 65.008C115.743 64.904 115.495 64.852 115.207 64.852C114.951 64.852 114.675 64.924 114.379 65.068C114.091 65.204 113.795 65.424 113.491 65.728V68.632C113.771 68.88 114.051 69.056 114.331 69.16C114.619 69.264 114.867 69.316 115.075 69.316ZM121.538 70.144C120.834 70.144 120.318 69.948 119.99 69.556C119.67 69.156 119.51 68.568 119.51 67.792V64.168H120.506V67.66C120.506 68.212 120.606 68.624 120.806 68.896C121.014 69.16 121.362 69.292 121.85 69.292C122.186 69.292 122.49 69.208 122.762 69.04C123.034 68.864 123.334 68.588 123.662 68.212V64.168H124.646V70H123.842L123.758 68.98H123.71C123.414 69.324 123.09 69.604 122.738 69.82C122.394 70.036 121.994 70.144 121.538 70.144ZM129.933 70.144C129.477 70.144 129.053 70.076 128.661 69.94C128.277 69.804 127.941 69.608 127.653 69.352C127.365 69.088 127.141 68.768 126.981 68.392C126.821 68.008 126.741 67.576 126.741 67.096C126.741 66.608 126.825 66.176 126.993 65.8C127.169 65.416 127.405 65.092 127.701 64.828C127.997 64.564 128.341 64.364 128.733 64.228C129.133 64.092 129.553 64.024 129.993 64.024C130.473 64.024 130.885 64.108 131.229 64.276C131.581 64.444 131.877 64.644 132.117 64.876L131.625 65.512C131.385 65.304 131.133 65.14 130.869 65.02C130.613 64.9 130.333 64.84 130.029 64.84C129.693 64.84 129.385 64.896 129.105 65.008C128.825 65.112 128.585 65.264 128.385 65.464C128.193 65.664 128.041 65.904 127.929 66.184C127.817 66.456 127.761 66.76 127.761 67.096C127.761 67.432 127.813 67.736 127.917 68.008C128.029 68.28 128.181 68.516 128.373 68.716C128.573 68.908 128.809 69.06 129.081 69.172C129.361 69.276 129.669 69.328 130.005 69.328C130.365 69.328 130.693 69.26 130.989 69.124C131.293 68.98 131.565 68.804 131.805 68.596L132.249 69.232C131.921 69.52 131.561 69.744 131.169 69.904C130.777 70.064 130.365 70.144 129.933 70.144ZM134.249 70V61.456H135.233V67.24H135.281L138.425 64.168H139.553L137.225 66.46L139.865 70H138.761L136.613 67.06L135.233 68.416V70H134.249ZM144.132 70.144C143.692 70.144 143.28 70.076 142.896 69.94C142.52 69.804 142.188 69.604 141.9 69.34C141.62 69.076 141.396 68.756 141.228 68.38C141.068 67.996 140.988 67.56 140.988 67.072C140.988 66.6 141.068 66.176 141.228 65.8C141.396 65.424 141.616 65.104 141.888 64.84C142.168 64.576 142.484 64.376 142.836 64.24C143.196 64.096 143.572 64.024 143.964 64.024C144.38 64.024 144.752 64.092 145.08 64.228C145.416 64.356 145.696 64.54 145.92 64.78C146.152 65.02 146.328 65.308 146.448 65.644C146.568 65.98 146.628 66.352 146.628 66.76C146.628 66.872 146.624 66.98 146.616 67.084C146.608 67.188 146.596 67.28 146.58 67.36H141.984C142.048 68.024 142.288 68.524 142.704 68.86C143.128 69.188 143.644 69.352 144.252 69.352C144.604 69.352 144.92 69.304 145.2 69.208C145.488 69.104 145.764 68.968 146.028 68.8L146.388 69.448C146.1 69.64 145.768 69.804 145.392 69.94C145.024 70.076 144.604 70.144 144.132 70.144ZM143.988 64.804C143.748 64.804 143.516 64.844 143.292 64.924C143.076 65.004 142.88 65.12 142.704 65.272C142.528 65.416 142.38 65.6 142.26 65.824C142.14 66.048 142.056 66.304 142.008 66.592H145.728C145.688 65.992 145.512 65.544 145.2 65.248C144.896 64.952 144.492 64.804 143.988 64.804ZM152.095 70.144C151.671 70.144 151.315 70.088 151.027 69.976C150.739 69.856 150.507 69.692 150.331 69.484C150.155 69.268 150.027 69.012 149.947 68.716C149.875 68.42 149.839 68.092 149.839 67.732V64.972H148.195V64.228L149.875 64.168L150.007 62.296H150.823V64.168H153.691V64.972H150.823V67.744C150.823 68.008 150.847 68.24 150.895 68.44C150.943 68.632 151.023 68.796 151.135 68.932C151.247 69.068 151.399 69.172 151.591 69.244C151.783 69.308 152.019 69.34 152.299 69.34C152.579 69.34 152.831 69.316 153.055 69.268C153.279 69.22 153.495 69.156 153.703 69.076L153.919 69.796C153.655 69.892 153.375 69.972 153.079 70.036C152.791 70.108 152.463 70.144 152.095 70.144ZM155.283 71.68V70.828H161.043V71.68H155.283ZM165.55 70V64.972H162.838V64.168H166.534V70H165.55ZM165.934 62.944C165.71 62.944 165.522 62.876 165.37 62.74C165.218 62.596 165.142 62.408 165.142 62.176C165.142 61.944 165.218 61.76 165.37 61.624C165.522 61.48 165.71 61.408 165.934 61.408C166.158 61.408 166.346 61.48 166.498 61.624C166.65 61.76 166.726 61.944 166.726 62.176C166.726 62.408 166.65 62.596 166.498 62.74C166.346 62.876 166.158 62.944 165.934 62.944ZM172.205 70.144C171.821 70.144 171.473 70.076 171.161 69.94C170.857 69.804 170.593 69.608 170.369 69.352C170.145 69.088 169.973 68.768 169.853 68.392C169.733 68.016 169.673 67.584 169.673 67.096C169.673 66.624 169.745 66.2 169.889 65.824C170.041 65.44 170.237 65.116 170.477 64.852C170.725 64.588 171.009 64.384 171.329 64.24C171.649 64.096 171.981 64.024 172.325 64.024C172.677 64.024 172.989 64.092 173.261 64.228C173.541 64.356 173.809 64.54 174.065 64.78H174.101L174.053 63.7V61.456H175.037V70H174.221L174.137 69.232H174.101C173.861 69.48 173.573 69.696 173.237 69.88C172.909 70.056 172.565 70.144 172.205 70.144ZM172.409 69.316C172.985 69.316 173.533 69.024 174.053 68.44V65.536C173.789 65.288 173.529 65.112 173.273 65.008C173.025 64.904 172.773 64.852 172.517 64.852C172.261 64.852 172.021 64.908 171.797 65.02C171.581 65.124 171.389 65.276 171.221 65.476C171.061 65.668 170.933 65.9 170.837 66.172C170.741 66.444 170.693 66.748 170.693 67.084C170.693 67.788 170.841 68.336 171.137 68.728C171.441 69.12 171.865 69.316 172.409 69.316ZM184.364 65.128V64.384H189.524V65.128H184.364ZM184.364 67.684V66.94H189.524V67.684H184.364Z" fill="#DDDDDD"/>
<path d="M272.004 72.112L271.464 71.608C272.272 70.928 272.864 70.188 273.24 69.388C273.624 68.588 273.816 67.68 273.816 66.664C273.816 65.648 273.624 64.74 273.24 63.94C272.864 63.14 272.272 62.4 271.464 61.72L272.004 61.216C272.836 61.864 273.492 62.644 273.972 63.556C274.46 64.468 274.704 65.504 274.704 66.664C274.704 67.824 274.46 68.86 273.972 69.772C273.492 70.684 272.836 71.464 272.004 72.112ZM280.795 65.848C280.523 65.848 280.291 65.756 280.099 65.572C279.915 65.388 279.823 65.144 279.823 64.84C279.823 64.536 279.915 64.292 280.099 64.108C280.291 63.916 280.523 63.82 280.795 63.82C281.067 63.82 281.295 63.916 281.479 64.108C281.671 64.292 281.767 64.536 281.767 64.84C281.767 65.144 281.671 65.388 281.479 65.572C281.295 65.756 281.067 65.848 280.795 65.848ZM279.835 72.556L279.559 71.932C280.055 71.708 280.427 71.436 280.675 71.116C280.923 70.804 281.055 70.408 281.071 69.928C281.031 69.944 280.991 69.952 280.951 69.952C280.919 69.952 280.883 69.952 280.843 69.952C280.587 69.952 280.367 69.88 280.183 69.736C279.999 69.584 279.907 69.356 279.907 69.052C279.907 68.756 280.003 68.532 280.195 68.38C280.387 68.22 280.611 68.14 280.867 68.14C281.227 68.14 281.495 68.28 281.671 68.56C281.855 68.832 281.947 69.204 281.947 69.676C281.947 70.38 281.759 70.972 281.383 71.452C281.015 71.94 280.499 72.308 279.835 72.556Z" fill="#DDDDDD"/>
<path d="M64.806 26.132C64.388 26.132 63.9993 26.0697 63.64 25.945C63.288 25.8203 62.98 25.6407 62.716 25.406C62.452 25.164 62.2467 24.8707 62.1 24.526C61.9533 24.174 61.88 23.778 61.88 23.338C61.88 22.8907 61.957 22.4947 62.111 22.15C62.2723 21.798 62.4887 21.501 62.76 21.259C63.0313 21.017 63.3467 20.8337 63.706 20.709C64.0727 20.5843 64.4577 20.522 64.861 20.522C65.301 20.522 65.6787 20.599 65.994 20.753C66.3167 20.907 66.588 21.0903 66.808 21.303L66.357 21.886C66.137 21.6953 65.906 21.545 65.664 21.435C65.4293 21.325 65.1727 21.27 64.894 21.27C64.586 21.27 64.3037 21.3213 64.047 21.424C63.7903 21.5193 63.5703 21.6587 63.387 21.842C63.211 22.0253 63.0717 22.2453 62.969 22.502C62.8663 22.7513 62.815 23.03 62.815 23.338C62.815 23.646 62.8627 23.9247 62.958 24.174C63.0607 24.4233 63.2 24.6397 63.376 24.823C63.5593 24.999 63.7757 25.1383 64.025 25.241C64.2817 25.3363 64.564 25.384 64.872 25.384C65.202 25.384 65.5027 25.3217 65.774 25.197C66.0527 25.065 66.302 24.9037 66.522 24.713L66.929 25.296C66.6283 25.56 66.2983 25.7653 65.939 25.912C65.5797 26.0587 65.202 26.132 64.806 26.132ZM69.2017 26V20.654H69.9497L70.0267 21.919H70.0597C70.3384 21.4863 70.6794 21.1453 71.0827 20.896C71.4934 20.6467 71.948 20.522 72.4467 20.522C72.6447 20.522 72.828 20.5403 72.9967 20.577C73.1654 20.6063 73.334 20.6613 73.5027 20.742L73.2937 21.523C73.103 21.457 72.9417 21.4093 72.8097 21.38C72.685 21.3507 72.5164 21.336 72.3037 21.336C71.9004 21.336 71.5117 21.4533 71.1377 21.688C70.771 21.9153 70.4264 22.3077 70.1037 22.865V26H69.2017ZM77.8214 26.132C77.4181 26.132 77.0404 26.0697 76.6884 25.945C76.3437 25.8203 76.0394 25.637 75.7754 25.395C75.5187 25.153 75.3134 24.8597 75.1594 24.515C75.0127 24.163 74.9394 23.7633 74.9394 23.316C74.9394 22.8833 75.0127 22.4947 75.1594 22.15C75.3134 21.8053 75.5151 21.512 75.7644 21.27C76.0211 21.028 76.3107 20.8447 76.6334 20.72C76.9634 20.588 77.3081 20.522 77.6674 20.522C78.0487 20.522 78.3897 20.5843 78.6904 20.709C78.9984 20.8263 79.2551 20.995 79.4604 21.215C79.6731 21.435 79.8344 21.699 79.9444 22.007C80.0544 22.315 80.1094 22.656 80.1094 23.03C80.1094 23.1327 80.1057 23.2317 80.0984 23.327C80.0911 23.4223 80.0801 23.5067 80.0654 23.58H75.8524C75.9111 24.1887 76.1311 24.647 76.5124 24.955C76.9011 25.2557 77.3741 25.406 77.9314 25.406C78.2541 25.406 78.5437 25.362 78.8004 25.274C79.0644 25.1787 79.3174 25.054 79.5594 24.9L79.8894 25.494C79.6254 25.67 79.3211 25.8203 78.9764 25.945C78.6391 26.0697 78.2541 26.132 77.8214 26.132ZM77.6894 21.237C77.4694 21.237 77.2567 21.2737 77.0514 21.347C76.8534 21.4203 76.6737 21.5267 76.5124 21.666C76.3511 21.798 76.2154 21.9667 76.1054 22.172C75.9954 22.3773 75.9184 22.612 75.8744 22.876H79.2844C79.2477 22.326 79.0864 21.9153 78.8004 21.644C78.5217 21.3727 78.1514 21.237 77.6894 21.237ZM83.4931 26.132C83.2438 26.132 83.0091 26.0953 82.7891 26.022C82.5691 25.956 82.3748 25.8607 82.2061 25.736C82.0448 25.604 81.9164 25.4463 81.8211 25.263C81.7258 25.0723 81.6781 24.856 81.6781 24.614C81.6781 24.3133 81.7478 24.053 81.8871 23.833C82.0338 23.6057 82.2611 23.4113 82.5691 23.25C82.8844 23.0887 83.2878 22.9567 83.7791 22.854C84.2704 22.7513 84.8608 22.6707 85.5501 22.612C85.5428 22.4287 85.5134 22.2563 85.4621 22.095C85.4108 21.9337 85.3301 21.7943 85.2201 21.677C85.1101 21.5523 84.9634 21.4533 84.7801 21.38C84.6041 21.3067 84.3878 21.27 84.1311 21.27C83.7791 21.27 83.4418 21.3397 83.1191 21.479C82.7964 21.611 82.5104 21.754 82.2611 21.908L81.9091 21.292C82.0411 21.204 82.1951 21.116 82.3711 21.028C82.5544 20.9327 82.7451 20.8483 82.9431 20.775C83.1484 20.7017 83.3648 20.643 83.5921 20.599C83.8194 20.5477 84.0504 20.522 84.2851 20.522C85.0184 20.522 85.5611 20.7237 85.9131 21.127C86.2724 21.523 86.4521 22.0547 86.4521 22.722V26H85.7151L85.6381 25.274H85.6051C85.3044 25.5087 84.9708 25.7103 84.6041 25.879C84.2448 26.0477 83.8744 26.132 83.4931 26.132ZM83.7351 25.406C84.0431 25.406 84.3438 25.34 84.6371 25.208C84.9378 25.0687 85.2421 24.8707 85.5501 24.614V23.206C84.9781 23.25 84.4978 23.3123 84.1091 23.393C83.7278 23.4737 83.4198 23.5727 83.1851 23.69C82.9578 23.8 82.7964 23.9283 82.7011 24.075C82.6058 24.2143 82.5581 24.372 82.5581 24.548C82.5581 24.702 82.5911 24.834 82.6571 24.944C82.7231 25.0467 82.8074 25.1347 82.9101 25.208C83.0201 25.274 83.1448 25.3253 83.2841 25.362C83.4308 25.3913 83.5811 25.406 83.7351 25.406ZM91.7168 26.132C91.3281 26.132 91.0018 26.0807 90.7378 25.978C90.4738 25.868 90.2611 25.7177 90.0998 25.527C89.9385 25.329 89.8211 25.0943 89.7478 24.823C89.6818 24.5517 89.6488 24.251 89.6488 23.921V21.391H88.1418V20.709L89.6818 20.654L89.8028 18.938H90.5508V20.654H93.1798V21.391H90.5508V23.932C90.5508 24.174 90.5728 24.3867 90.6168 24.57C90.6608 24.746 90.7341 24.8963 90.8368 25.021C90.9395 25.1457 91.0788 25.241 91.2548 25.307C91.4308 25.3657 91.6471 25.395 91.9038 25.395C92.1605 25.395 92.3915 25.373 92.5968 25.329C92.8021 25.285 93.0001 25.2263 93.1908 25.153L93.3888 25.813C93.1468 25.901 92.8901 25.9743 92.6188 26.033C92.3548 26.099 92.0541 26.132 91.7168 26.132ZM97.6085 26.132C97.2052 26.132 96.8275 26.0697 96.4755 25.945C96.1308 25.8203 95.8265 25.637 95.5625 25.395C95.3058 25.153 95.1005 24.8597 94.9465 24.515C94.7998 24.163 94.7265 23.7633 94.7265 23.316C94.7265 22.8833 94.7998 22.4947 94.9465 22.15C95.1005 21.8053 95.3022 21.512 95.5515 21.27C95.8082 21.028 96.0978 20.8447 96.4205 20.72C96.7505 20.588 97.0952 20.522 97.4545 20.522C97.8358 20.522 98.1768 20.5843 98.4775 20.709C98.7855 20.8263 99.0422 20.995 99.2475 21.215C99.4602 21.435 99.6215 21.699 99.7315 22.007C99.8415 22.315 99.8965 22.656 99.8965 23.03C99.8965 23.1327 99.8928 23.2317 99.8855 23.327C99.8782 23.4223 99.8672 23.5067 99.8525 23.58H95.6395C95.6982 24.1887 95.9182 24.647 96.2995 24.955C96.6882 25.2557 97.1612 25.406 97.7185 25.406C98.0412 25.406 98.3308 25.362 98.5875 25.274C98.8515 25.1787 99.1045 25.054 99.3465 24.9L99.6765 25.494C99.4125 25.67 99.1082 25.8203 98.7635 25.945C98.4262 26.0697 98.0412 26.132 97.6085 26.132ZM97.4765 21.237C97.2565 21.237 97.0438 21.2737 96.8385 21.347C96.6405 21.4203 96.4608 21.5267 96.2995 21.666C96.1382 21.798 96.0025 21.9667 95.8925 22.172C95.7825 22.3773 95.7055 22.612 95.6615 22.876H99.0715C99.0348 22.326 98.8735 21.9153 98.5875 21.644C98.3088 21.3727 97.9385 21.237 97.4765 21.237Z" fill="#569CD6"/>
<path d="M163.896 21.776L163.596 19.076L163.572 17.756H164.892L164.868 19.076L164.568 21.776H163.896ZM166.644 21.776L166.344 19.076L166.32 17.756H167.64L167.616 19.076L167.316 21.776H166.644ZM170.419 26V18.128H172.795C173.227 18.128 173.623 18.168 173.983 18.248C174.343 18.328 174.651 18.46 174.907 18.644C175.163 18.82 175.359 19.056 175.495 19.352C175.639 19.648 175.711 20.012 175.711 20.444C175.711 20.86 175.639 21.22 175.495 21.524C175.359 21.828 175.159 22.08 174.895 22.28C174.639 22.48 174.331 22.632 173.971 22.736C173.619 22.832 173.227 22.88 172.795 22.88H171.415V26H170.419ZM171.415 22.064H172.675C173.371 22.064 173.883 21.936 174.211 21.68C174.539 21.416 174.703 21.004 174.703 20.444C174.703 19.876 174.535 19.484 174.199 19.268C173.863 19.044 173.355 18.932 172.675 18.932H171.415V22.064ZM179.343 26.144C178.639 26.144 178.123 25.948 177.795 25.556C177.475 25.156 177.315 24.568 177.315 23.792V20.168H178.311V23.66C178.311 24.212 178.411 24.624 178.611 24.896C178.819 25.16 179.167 25.292 179.655 25.292C179.991 25.292 180.295 25.208 180.567 25.04C180.839 24.864 181.139 24.588 181.467 24.212V20.168H182.451V26H181.647L181.563 24.98H181.515C181.219 25.324 180.895 25.604 180.543 25.82C180.199 26.036 179.799 26.144 179.343 26.144ZM187.426 26.144C187.146 26.144 186.842 26.076 186.514 25.94C186.194 25.796 185.894 25.6 185.614 25.352H185.578L185.494 26H184.702V17.456H185.686V19.784L185.65 20.912H185.686C185.95 20.64 186.254 20.424 186.598 20.264C186.95 20.104 187.298 20.024 187.642 20.024C188.034 20.024 188.382 20.096 188.686 20.24C188.99 20.376 189.242 20.576 189.442 20.84C189.65 21.096 189.806 21.408 189.91 21.776C190.014 22.136 190.066 22.54 190.066 22.988C190.066 23.484 189.994 23.928 189.85 24.32C189.706 24.712 189.51 25.044 189.262 25.316C189.022 25.588 188.742 25.796 188.422 25.94C188.102 26.076 187.77 26.144 187.426 26.144ZM187.27 25.316C187.526 25.316 187.762 25.264 187.978 25.16C188.194 25.048 188.382 24.896 188.542 24.704C188.702 24.504 188.826 24.26 188.914 23.972C189.002 23.684 189.046 23.36 189.046 23C189.046 22.68 189.014 22.388 188.95 22.124C188.886 21.86 188.786 21.636 188.65 21.452C188.522 21.26 188.354 21.112 188.146 21.008C187.938 20.904 187.69 20.852 187.402 20.852C187.146 20.852 186.87 20.924 186.574 21.068C186.286 21.204 185.99 21.424 185.686 21.728V24.632C185.966 24.88 186.246 25.056 186.526 25.16C186.814 25.264 187.062 25.316 187.27 25.316ZM195.665 26.144C195.041 26.144 194.565 25.968 194.237 25.616C193.909 25.264 193.745 24.74 193.745 24.044V18.26H191.669V17.456H194.729V24.116C194.729 24.548 194.833 24.86 195.041 25.052C195.249 25.236 195.529 25.328 195.881 25.328C196.225 25.328 196.589 25.24 196.973 25.064L197.225 25.796C196.953 25.908 196.705 25.992 196.481 26.048C196.257 26.112 195.985 26.144 195.665 26.144ZM201.769 26V20.972H199.057V20.168H202.753V26H201.769ZM202.153 18.944C201.929 18.944 201.741 18.876 201.589 18.74C201.437 18.596 201.361 18.408 201.361 18.176C201.361 17.944 201.437 17.76 201.589 17.624C201.741 17.48 201.929 17.408 202.153 17.408C202.377 17.408 202.565 17.48 202.717 17.624C202.869 17.76 202.945 17.944 202.945 18.176C202.945 18.408 202.869 18.596 202.717 18.74C202.565 18.876 202.377 18.944 202.153 18.944ZM209.324 26.144C208.868 26.144 208.444 26.076 208.052 25.94C207.668 25.804 207.332 25.608 207.044 25.352C206.756 25.088 206.532 24.768 206.372 24.392C206.212 24.008 206.132 23.576 206.132 23.096C206.132 22.608 206.216 22.176 206.384 21.8C206.56 21.416 206.796 21.092 207.092 20.828C207.388 20.564 207.732 20.364 208.124 20.228C208.524 20.092 208.944 20.024 209.384 20.024C209.864 20.024 210.276 20.108 210.62 20.276C210.972 20.444 211.268 20.644 211.508 20.876L211.016 21.512C210.776 21.304 210.524 21.14 210.26 21.02C210.004 20.9 209.724 20.84 209.42 20.84C209.084 20.84 208.776 20.896 208.496 21.008C208.216 21.112 207.976 21.264 207.776 21.464C207.584 21.664 207.432 21.904 207.32 22.184C207.208 22.456 207.152 22.76 207.152 23.096C207.152 23.432 207.204 23.736 207.308 24.008C207.42 24.28 207.572 24.516 207.764 24.716C207.964 24.908 208.2 25.06 208.472 25.172C208.752 25.276 209.06 25.328 209.396 25.328C209.756 25.328 210.084 25.26 210.38 25.124C210.684 24.98 210.956 24.804 211.196 24.596L211.64 25.232C211.312 25.52 210.952 25.744 210.56 25.904C210.168 26.064 209.756 26.144 209.324 26.144ZM222.347 21.596L221.975 22.796H224.327L223.955 21.596C223.819 21.156 223.683 20.72 223.547 20.288C223.419 19.848 223.295 19.4 223.175 18.944H223.127C222.999 19.4 222.871 19.848 222.743 20.288C222.615 20.72 222.483 21.156 222.347 21.596ZM219.947 26L222.599 18.128H223.727L226.379 26H225.323L224.579 23.6H221.723L220.967 26H219.947ZM230.91 26.144C230.454 26.144 230.03 26.076 229.638 25.94C229.254 25.804 228.918 25.608 228.63 25.352C228.342 25.088 228.118 24.768 227.958 24.392C227.798 24.008 227.718 23.576 227.718 23.096C227.718 22.608 227.802 22.176 227.97 21.8C228.146 21.416 228.382 21.092 228.678 20.828C228.974 20.564 229.318 20.364 229.71 20.228C230.11 20.092 230.53 20.024 230.97 20.024C231.45 20.024 231.862 20.108 232.206 20.276C232.558 20.444 232.854 20.644 233.094 20.876L232.602 21.512C232.362 21.304 232.11 21.14 231.846 21.02C231.59 20.9 231.31 20.84 231.006 20.84C230.67 20.84 230.362 20.896 230.082 21.008C229.802 21.112 229.562 21.264 229.362 21.464C229.17 21.664 229.018 21.904 228.906 22.184C228.794 22.456 228.738 22.76 228.738 23.096C228.738 23.432 228.79 23.736 228.894 24.008C229.006 24.28 229.158 24.516 229.35 24.716C229.55 24.908 229.786 25.06 230.058 25.172C230.338 25.276 230.646 25.328 230.982 25.328C231.342 25.328 231.67 25.26 231.966 25.124C232.27 24.98 232.542 24.804 232.782 24.596L233.226 25.232C232.898 25.52 232.538 25.744 232.146 25.904C231.754 26.064 231.342 26.144 230.91 26.144ZM238.105 26.144C237.649 26.144 237.225 26.076 236.833 25.94C236.449 25.804 236.113 25.608 235.825 25.352C235.537 25.088 235.313 24.768 235.153 24.392C234.993 24.008 234.913 23.576 234.913 23.096C234.913 22.608 234.997 22.176 235.165 21.8C235.341 21.416 235.577 21.092 235.873 20.828C236.169 20.564 236.513 20.364 236.905 20.228C237.305 20.092 237.725 20.024 238.165 20.024C238.645 20.024 239.057 20.108 239.401 20.276C239.753 20.444 240.049 20.644 240.289 20.876L239.797 21.512C239.557 21.304 239.305 21.14 239.041 21.02C238.785 20.9 238.505 20.84 238.201 20.84C237.865 20.84 237.557 20.896 237.277 21.008C236.997 21.112 236.757 21.264 236.557 21.464C236.365 21.664 236.213 21.904 236.101 22.184C235.989 22.456 235.933 22.76 235.933 23.096C235.933 23.432 235.985 23.736 236.089 24.008C236.201 24.28 236.353 24.516 236.545 24.716C236.745 24.908 236.981 25.06 237.253 25.172C237.533 25.276 237.841 25.328 238.177 25.328C238.537 25.328 238.865 25.26 239.161 25.124C239.465 24.98 239.737 24.804 239.977 24.596L240.421 25.232C240.093 25.52 239.733 25.744 239.341 25.904C238.949 26.064 238.537 26.144 238.105 26.144ZM245.108 26.144C244.668 26.144 244.256 26.076 243.872 25.94C243.496 25.804 243.164 25.604 242.876 25.34C242.596 25.076 242.372 24.756 242.204 24.38C242.044 23.996 241.964 23.56 241.964 23.072C241.964 22.6 242.044 22.176 242.204 21.8C242.372 21.424 242.592 21.104 242.864 20.84C243.144 20.576 243.46 20.376 243.812 20.24C244.172 20.096 244.548 20.024 244.94 20.024C245.356 20.024 245.728 20.092 246.056 20.228C246.392 20.356 246.672 20.54 246.896 20.78C247.128 21.02 247.304 21.308 247.424 21.644C247.544 21.98 247.604 22.352 247.604 22.76C247.604 22.872 247.6 22.98 247.592 23.084C247.584 23.188 247.572 23.28 247.556 23.36H242.96C243.024 24.024 243.264 24.524 243.68 24.86C244.104 25.188 244.62 25.352 245.228 25.352C245.58 25.352 245.896 25.304 246.176 25.208C246.464 25.104 246.74 24.968 247.004 24.8L247.364 25.448C247.076 25.64 246.744 25.804 246.368 25.94C246 26.076 245.58 26.144 245.108 26.144ZM244.964 20.804C244.724 20.804 244.492 20.844 244.268 20.924C244.052 21.004 243.856 21.12 243.68 21.272C243.504 21.416 243.356 21.6 243.236 21.824C243.116 22.048 243.032 22.304 242.984 22.592H246.704C246.664 21.992 246.488 21.544 246.176 21.248C245.872 20.952 245.468 20.804 244.964 20.804ZM252.064 26.144C251.488 26.144 250.956 26.056 250.468 25.88C249.98 25.696 249.556 25.48 249.196 25.232L249.652 24.584C249.988 24.824 250.356 25.016 250.756 25.16C251.164 25.304 251.64 25.376 252.184 25.376C252.68 25.376 253.048 25.288 253.288 25.112C253.536 24.928 253.66 24.712 253.66 24.464C253.66 24.352 253.64 24.248 253.6 24.152C253.56 24.056 253.472 23.964 253.336 23.876C253.208 23.788 253.024 23.704 252.784 23.624C252.544 23.544 252.228 23.464 251.836 23.384C251.076 23.224 250.504 23.012 250.12 22.748C249.744 22.476 249.556 22.12 249.556 21.68C249.556 21.448 249.608 21.232 249.712 21.032C249.816 20.824 249.968 20.648 250.168 20.504C250.376 20.352 250.628 20.236 250.924 20.156C251.228 20.068 251.58 20.024 251.98 20.024C252.428 20.024 252.86 20.1 253.276 20.252C253.692 20.396 254.044 20.568 254.332 20.768L253.852 21.404C253.58 21.22 253.28 21.072 252.952 20.96C252.624 20.848 252.272 20.792 251.896 20.792C251.4 20.792 251.052 20.876 250.852 21.044C250.652 21.212 250.552 21.408 250.552 21.632C250.552 21.888 250.684 22.084 250.948 22.22C251.212 22.348 251.644 22.476 252.244 22.604C252.732 22.708 253.132 22.82 253.444 22.94C253.756 23.052 254 23.18 254.176 23.324C254.36 23.468 254.484 23.628 254.548 23.804C254.62 23.98 254.656 24.18 254.656 24.404C254.656 24.644 254.6 24.868 254.488 25.076C254.376 25.284 254.208 25.468 253.984 25.628C253.768 25.788 253.496 25.912 253.168 26C252.848 26.096 252.48 26.144 252.064 26.144ZM259.259 26.144C258.683 26.144 258.151 26.056 257.663 25.88C257.175 25.696 256.751 25.48 256.391 25.232L256.847 24.584C257.183 24.824 257.551 25.016 257.951 25.16C258.359 25.304 258.835 25.376 259.379 25.376C259.875 25.376 260.243 25.288 260.483 25.112C260.731 24.928 260.855 24.712 260.855 24.464C260.855 24.352 260.835 24.248 260.795 24.152C260.755 24.056 260.667 23.964 260.531 23.876C260.403 23.788 260.219 23.704 259.979 23.624C259.739 23.544 259.423 23.464 259.031 23.384C258.271 23.224 257.699 23.012 257.315 22.748C256.939 22.476 256.751 22.12 256.751 21.68C256.751 21.448 256.803 21.232 256.907 21.032C257.011 20.824 257.163 20.648 257.363 20.504C257.571 20.352 257.823 20.236 258.119 20.156C258.423 20.068 258.775 20.024 259.175 20.024C259.623 20.024 260.055 20.1 260.471 20.252C260.887 20.396 261.239 20.568 261.527 20.768L261.047 21.404C260.775 21.22 260.475 21.072 260.147 20.96C259.819 20.848 259.467 20.792 259.091 20.792C258.595 20.792 258.247 20.876 258.047 21.044C257.847 21.212 257.747 21.408 257.747 21.632C257.747 21.888 257.879 22.084 258.143 22.22C258.407 22.348 258.839 22.476 259.439 22.604C259.927 22.708 260.327 22.82 260.639 22.94C260.951 23.052 261.195 23.18 261.371 23.324C261.555 23.468 261.679 23.628 261.743 23.804C261.815 23.98 261.851 24.18 261.851 24.404C261.851 24.644 261.795 24.868 261.683 25.076C261.571 25.284 261.403 25.468 261.179 25.628C260.963 25.788 260.691 25.912 260.363 26C260.043 26.096 259.675 26.144 259.259 26.144ZM264.63 21.776L264.33 19.076L264.306 17.756H265.626L265.602 19.076L265.302 21.776H264.63ZM267.378 21.776L267.078 19.076L267.054 17.756H268.374L268.35 19.076L268.05 21.776H267.378Z" fill="#3ECF8E"/>
<path d="M78.72 48.144C78.144 48.144 77.612 48.056 77.124 47.88C76.636 47.696 76.212 47.48 75.852 47.232L76.308 46.584C76.644 46.824 77.012 47.016 77.412 47.16C77.82 47.304 78.296 47.376 78.84 47.376C79.336 47.376 79.704 47.288 79.944 47.112C80.192 46.928 80.316 46.712 80.316 46.464C80.316 46.352 80.296 46.248 80.256 46.152C80.216 46.056 80.128 45.964 79.992 45.876C79.864 45.788 79.68 45.704 79.44 45.624C79.2 45.544 78.884 45.464 78.492 45.384C77.732 45.224 77.16 45.012 76.776 44.748C76.4 44.476 76.212 44.12 76.212 43.68C76.212 43.448 76.264 43.232 76.368 43.032C76.472 42.824 76.624 42.648 76.824 42.504C77.032 42.352 77.284 42.236 77.58 42.156C77.884 42.068 78.236 42.024 78.636 42.024C79.084 42.024 79.516 42.1 79.932 42.252C80.348 42.396 80.7 42.568 80.988 42.768L80.508 43.404C80.236 43.22 79.936 43.072 79.608 42.96C79.28 42.848 78.928 42.792 78.552 42.792C78.056 42.792 77.708 42.876 77.508 43.044C77.308 43.212 77.208 43.408 77.208 43.632C77.208 43.888 77.34 44.084 77.604 44.22C77.868 44.348 78.3 44.476 78.9 44.604C79.388 44.708 79.788 44.82 80.1 44.94C80.412 45.052 80.656 45.18 80.832 45.324C81.016 45.468 81.14 45.628 81.204 45.804C81.276 45.98 81.312 46.18 81.312 46.404C81.312 46.644 81.256 46.868 81.144 47.076C81.032 47.284 80.864 47.468 80.64 47.628C80.424 47.788 80.152 47.912 79.824 48C79.504 48.096 79.136 48.144 78.72 48.144ZM86.9233 48.144C86.4993 48.144 86.1433 48.088 85.8553 47.976C85.5673 47.856 85.3353 47.692 85.1593 47.484C84.9833 47.268 84.8553 47.012 84.7753 46.716C84.7033 46.42 84.6673 46.092 84.6673 45.732V42.972H83.0233V42.228L84.7033 42.168L84.8353 40.296H85.6513V42.168H88.5193V42.972H85.6513V45.744C85.6513 46.008 85.6753 46.24 85.7233 46.44C85.7713 46.632 85.8513 46.796 85.9633 46.932C86.0753 47.068 86.2273 47.172 86.4193 47.244C86.6113 47.308 86.8473 47.34 87.1273 47.34C87.4073 47.34 87.6593 47.316 87.8833 47.268C88.1073 47.22 88.3233 47.156 88.5313 47.076L88.7473 47.796C88.4833 47.892 88.2033 47.972 87.9073 48.036C87.6193 48.108 87.2913 48.144 86.9233 48.144ZM92.9906 48.144C92.6066 48.144 92.2386 48.076 91.8866 47.94C91.5426 47.804 91.2386 47.608 90.9746 47.352C90.7106 47.088 90.4986 46.768 90.3386 46.392C90.1866 46.008 90.1106 45.576 90.1106 45.096C90.1106 44.608 90.1866 44.176 90.3386 43.8C90.4986 43.416 90.7106 43.092 90.9746 42.828C91.2386 42.564 91.5426 42.364 91.8866 42.228C92.2386 42.092 92.6066 42.024 92.9906 42.024C93.3746 42.024 93.7386 42.092 94.0826 42.228C94.4346 42.364 94.7426 42.564 95.0066 42.828C95.2706 43.092 95.4786 43.416 95.6306 43.8C95.7906 44.176 95.8706 44.608 95.8706 45.096C95.8706 45.576 95.7906 46.008 95.6306 46.392C95.4786 46.768 95.2706 47.088 95.0066 47.352C94.7426 47.608 94.4346 47.804 94.0826 47.94C93.7386 48.076 93.3746 48.144 92.9906 48.144ZM92.9906 47.328C93.2706 47.328 93.5226 47.276 93.7466 47.172C93.9786 47.06 94.1746 46.908 94.3346 46.716C94.5026 46.516 94.6306 46.28 94.7186 46.008C94.8066 45.736 94.8506 45.432 94.8506 45.096C94.8506 44.76 94.8066 44.456 94.7186 44.184C94.6306 43.904 94.5026 43.664 94.3346 43.464C94.1746 43.264 93.9786 43.112 93.7466 43.008C93.5226 42.896 93.2706 42.84 92.9906 42.84C92.7106 42.84 92.4546 42.896 92.2226 43.008C91.9986 43.112 91.8026 43.264 91.6346 43.464C91.4746 43.664 91.3506 43.904 91.2626 44.184C91.1746 44.456 91.1306 44.76 91.1306 45.096C91.1306 45.432 91.1746 45.736 91.2626 46.008C91.3506 46.28 91.4746 46.516 91.6346 46.716C91.8026 46.908 91.9986 47.06 92.2226 47.172C92.4546 47.276 92.7106 47.328 92.9906 47.328ZM98.3379 48V42.168H99.1539L99.2379 43.548H99.2739C99.5779 43.076 99.9499 42.704 100.39 42.432C100.838 42.16 101.334 42.024 101.878 42.024C102.094 42.024 102.294 42.044 102.478 42.084C102.662 42.116 102.846 42.176 103.03 42.264L102.802 43.116C102.594 43.044 102.418 42.992 102.274 42.96C102.138 42.928 101.954 42.912 101.722 42.912C101.282 42.912 100.858 43.04 100.45 43.296C100.05 43.544 99.6739 43.972 99.3219 44.58V48H98.3379ZM106.733 48.144C106.461 48.144 106.205 48.104 105.965 48.024C105.725 47.952 105.513 47.848 105.329 47.712C105.153 47.568 105.013 47.396 104.909 47.196C104.805 46.988 104.753 46.752 104.753 46.488C104.753 46.16 104.829 45.876 104.981 45.636C105.141 45.388 105.389 45.176 105.725 45C106.069 44.824 106.509 44.68 107.045 44.568C107.581 44.456 108.225 44.368 108.977 44.304C108.969 44.104 108.937 43.916 108.881 43.74C108.825 43.564 108.737 43.412 108.617 43.284C108.497 43.148 108.337 43.04 108.137 42.96C107.945 42.88 107.709 42.84 107.429 42.84C107.045 42.84 106.677 42.916 106.325 43.068C105.973 43.212 105.661 43.368 105.389 43.536L105.005 42.864C105.149 42.768 105.317 42.672 105.509 42.576C105.709 42.472 105.917 42.38 106.133 42.3C106.357 42.22 106.593 42.156 106.841 42.108C107.089 42.052 107.341 42.024 107.597 42.024C108.397 42.024 108.989 42.244 109.373 42.684C109.765 43.116 109.961 43.696 109.961 44.424V48H109.157L109.073 47.208H109.037C108.709 47.464 108.345 47.684 107.945 47.868C107.553 48.052 107.149 48.144 106.733 48.144ZM106.997 47.352C107.333 47.352 107.661 47.28 107.981 47.136C108.309 46.984 108.641 46.768 108.977 46.488V44.952C108.353 45 107.829 45.068 107.405 45.156C106.989 45.244 106.653 45.352 106.397 45.48C106.149 45.6 105.973 45.74 105.869 45.9C105.765 46.052 105.713 46.224 105.713 46.416C105.713 46.584 105.749 46.728 105.821 46.848C105.893 46.96 105.985 47.056 106.097 47.136C106.217 47.208 106.353 47.264 106.505 47.304C106.665 47.336 106.829 47.352 106.997 47.352ZM114.529 50.688C113.673 50.688 113.009 50.548 112.537 50.268C112.073 49.988 111.841 49.588 111.841 49.068C111.841 48.836 111.921 48.608 112.081 48.384C112.249 48.16 112.489 47.956 112.801 47.772V47.724C112.641 47.636 112.501 47.516 112.381 47.364C112.261 47.212 112.201 47.012 112.201 46.764C112.201 46.58 112.261 46.392 112.381 46.2C112.501 46 112.673 45.824 112.897 45.672V45.624C112.697 45.472 112.525 45.272 112.381 45.024C112.245 44.768 112.177 44.464 112.177 44.112C112.177 43.792 112.237 43.504 112.357 43.248C112.485 42.992 112.653 42.776 112.861 42.6C113.069 42.416 113.309 42.276 113.581 42.18C113.861 42.076 114.157 42.024 114.469 42.024C114.789 42.024 115.077 42.072 115.333 42.168H117.745V42.972H116.233C116.369 43.108 116.485 43.28 116.581 43.488C116.677 43.696 116.725 43.916 116.725 44.148C116.725 44.46 116.665 44.74 116.545 44.988C116.433 45.236 116.273 45.448 116.065 45.624C115.865 45.792 115.625 45.924 115.345 46.02C115.073 46.108 114.781 46.152 114.469 46.152C114.317 46.152 114.153 46.136 113.977 46.104C113.809 46.064 113.645 46.008 113.485 45.936C113.181 46.128 113.029 46.352 113.029 46.608C113.029 46.84 113.133 47.012 113.341 47.124C113.557 47.228 113.857 47.28 114.241 47.28H115.549C116.301 47.28 116.857 47.384 117.217 47.592C117.585 47.8 117.769 48.152 117.769 48.648C117.769 48.92 117.693 49.18 117.541 49.428C117.389 49.676 117.173 49.892 116.893 50.076C116.613 50.26 116.273 50.408 115.873 50.52C115.473 50.632 115.025 50.688 114.529 50.688ZM114.469 45.492C114.845 45.492 115.161 45.368 115.417 45.12C115.681 44.872 115.813 44.536 115.813 44.112C115.813 43.912 115.777 43.728 115.705 43.56C115.633 43.392 115.537 43.248 115.417 43.128C115.297 43.008 115.153 42.916 114.985 42.852C114.825 42.78 114.653 42.744 114.469 42.744C114.285 42.744 114.109 42.78 113.941 42.852C113.781 42.916 113.641 43.008 113.521 43.128C113.401 43.248 113.305 43.392 113.233 43.56C113.161 43.728 113.125 43.912 113.125 44.112C113.125 44.536 113.257 44.872 113.521 45.12C113.785 45.368 114.101 45.492 114.469 45.492ZM114.601 49.968C114.937 49.968 115.241 49.936 115.513 49.872C115.785 49.808 116.017 49.72 116.209 49.608C116.401 49.504 116.545 49.38 116.641 49.236C116.745 49.1 116.797 48.956 116.797 48.804C116.797 48.524 116.685 48.336 116.461 48.24C116.245 48.144 115.913 48.096 115.465 48.096H114.325C114.157 48.096 113.997 48.088 113.845 48.072C113.701 48.064 113.565 48.04 113.437 48C113.157 48.152 112.961 48.308 112.849 48.468C112.745 48.636 112.693 48.804 112.693 48.972C112.693 49.276 112.853 49.516 113.173 49.692C113.501 49.876 113.977 49.968 114.601 49.968ZM122.132 48.144C121.692 48.144 121.28 48.076 120.896 47.94C120.52 47.804 120.188 47.604 119.9 47.34C119.62 47.076 119.396 46.756 119.228 46.38C119.068 45.996 118.988 45.56 118.988 45.072C118.988 44.6 119.068 44.176 119.228 43.8C119.396 43.424 119.616 43.104 119.888 42.84C120.168 42.576 120.484 42.376 120.836 42.24C121.196 42.096 121.572 42.024 121.964 42.024C122.38 42.024 122.752 42.092 123.08 42.228C123.416 42.356 123.696 42.54 123.92 42.78C124.152 43.02 124.328 43.308 124.448 43.644C124.568 43.98 124.628 44.352 124.628 44.76C124.628 44.872 124.624 44.98 124.616 45.084C124.608 45.188 124.596 45.28 124.58 45.36H119.984C120.048 46.024 120.288 46.524 120.704 46.86C121.128 47.188 121.644 47.352 122.252 47.352C122.604 47.352 122.92 47.304 123.2 47.208C123.488 47.104 123.764 46.968 124.028 46.8L124.388 47.448C124.1 47.64 123.768 47.804 123.392 47.94C123.024 48.076 122.604 48.144 122.132 48.144ZM121.988 42.804C121.748 42.804 121.516 42.844 121.292 42.924C121.076 43.004 120.88 43.12 120.704 43.272C120.528 43.416 120.38 43.6 120.26 43.824C120.14 44.048 120.056 44.304 120.008 44.592H123.728C123.688 43.992 123.512 43.544 123.2 43.248C122.896 42.952 122.492 42.804 121.988 42.804ZM128.967 48.144C128.695 48.144 128.463 48.052 128.271 47.868C128.087 47.684 127.995 47.44 127.995 47.136C127.995 46.832 128.087 46.588 128.271 46.404C128.463 46.212 128.695 46.116 128.967 46.116C129.239 46.116 129.467 46.212 129.651 46.404C129.843 46.588 129.939 46.832 129.939 47.136C129.939 47.44 129.843 47.684 129.651 47.868C129.467 48.052 129.239 48.144 128.967 48.144ZM136.163 48.144C135.779 48.144 135.411 48.076 135.059 47.94C134.715 47.804 134.411 47.608 134.146 47.352C133.883 47.088 133.671 46.768 133.511 46.392C133.359 46.008 133.283 45.576 133.283 45.096C133.283 44.608 133.359 44.176 133.511 43.8C133.671 43.416 133.883 43.092 134.146 42.828C134.411 42.564 134.715 42.364 135.059 42.228C135.411 42.092 135.779 42.024 136.163 42.024C136.547 42.024 136.911 42.092 137.255 42.228C137.607 42.364 137.915 42.564 138.179 42.828C138.443 43.092 138.651 43.416 138.803 43.8C138.963 44.176 139.043 44.608 139.043 45.096C139.043 45.576 138.963 46.008 138.803 46.392C138.651 46.768 138.443 47.088 138.179 47.352C137.915 47.608 137.607 47.804 137.255 47.94C136.911 48.076 136.547 48.144 136.163 48.144ZM136.163 47.328C136.443 47.328 136.695 47.276 136.919 47.172C137.151 47.06 137.347 46.908 137.507 46.716C137.675 46.516 137.803 46.28 137.891 46.008C137.979 45.736 138.023 45.432 138.023 45.096C138.023 44.76 137.979 44.456 137.891 44.184C137.803 43.904 137.675 43.664 137.507 43.464C137.347 43.264 137.151 43.112 136.919 43.008C136.695 42.896 136.443 42.84 136.163 42.84C135.883 42.84 135.627 42.896 135.395 43.008C135.171 43.112 134.975 43.264 134.807 43.464C134.647 43.664 134.523 43.904 134.435 44.184C134.347 44.456 134.303 44.76 134.303 45.096C134.303 45.432 134.347 45.736 134.435 46.008C134.523 46.28 134.647 46.516 134.807 46.716C134.975 46.908 135.171 47.06 135.395 47.172C135.627 47.276 135.883 47.328 136.163 47.328ZM143.598 48.144C143.318 48.144 143.014 48.076 142.686 47.94C142.366 47.796 142.066 47.6 141.786 47.352H141.75L141.666 48H140.874V39.456H141.858V41.784L141.822 42.912H141.858C142.122 42.64 142.426 42.424 142.77 42.264C143.122 42.104 143.47 42.024 143.814 42.024C144.206 42.024 144.554 42.096 144.858 42.24C145.162 42.376 145.414 42.576 145.614 42.84C145.822 43.096 145.978 43.408 146.082 43.776C146.186 44.136 146.238 44.54 146.238 44.988C146.238 45.484 146.166 45.928 146.022 46.32C145.878 46.712 145.682 47.044 145.434 47.316C145.194 47.588 144.914 47.796 144.594 47.94C144.274 48.076 143.942 48.144 143.598 48.144ZM143.442 47.316C143.698 47.316 143.934 47.264 144.15 47.16C144.366 47.048 144.554 46.896 144.714 46.704C144.874 46.504 144.998 46.26 145.086 45.972C145.174 45.684 145.218 45.36 145.218 45C145.218 44.68 145.186 44.388 145.122 44.124C145.058 43.86 144.958 43.636 144.822 43.452C144.694 43.26 144.526 43.112 144.318 43.008C144.11 42.904 143.862 42.852 143.574 42.852C143.318 42.852 143.042 42.924 142.746 43.068C142.458 43.204 142.162 43.424 141.858 43.728V46.632C142.138 46.88 142.418 47.056 142.698 47.16C142.986 47.264 143.234 47.316 143.442 47.316ZM149.281 50.604C148.977 50.604 148.681 50.564 148.393 50.484C148.105 50.412 147.845 50.32 147.613 50.208L147.937 49.476C148.145 49.58 148.361 49.66 148.585 49.716C148.817 49.772 149.045 49.8 149.269 49.8C149.557 49.8 149.797 49.764 149.989 49.692C150.181 49.62 150.333 49.516 150.445 49.38C150.557 49.244 150.633 49.076 150.673 48.876C150.721 48.684 150.745 48.464 150.745 48.216V42.972H148.033V42.168H151.729V48.144C151.729 48.504 151.689 48.832 151.609 49.128C151.529 49.432 151.393 49.692 151.201 49.908C151.017 50.132 150.769 50.304 150.457 50.424C150.145 50.544 149.753 50.604 149.281 50.604ZM151.129 40.944C150.905 40.944 150.717 40.876 150.565 40.74C150.413 40.596 150.337 40.408 150.337 40.176C150.337 39.944 150.413 39.76 150.565 39.624C150.717 39.48 150.905 39.408 151.129 39.408C151.353 39.408 151.541 39.48 151.693 39.624C151.845 39.76 151.921 39.944 151.921 40.176C151.921 40.408 151.845 40.596 151.693 40.74C151.541 40.876 151.353 40.944 151.129 40.944ZM158.108 48.144C157.668 48.144 157.256 48.076 156.872 47.94C156.496 47.804 156.164 47.604 155.876 47.34C155.596 47.076 155.372 46.756 155.204 46.38C155.044 45.996 154.964 45.56 154.964 45.072C154.964 44.6 155.044 44.176 155.204 43.8C155.372 43.424 155.592 43.104 155.864 42.84C156.144 42.576 156.46 42.376 156.812 42.24C157.172 42.096 157.548 42.024 157.94 42.024C158.356 42.024 158.728 42.092 159.056 42.228C159.392 42.356 159.672 42.54 159.896 42.78C160.128 43.02 160.304 43.308 160.424 43.644C160.544 43.98 160.604 44.352 160.604 44.76C160.604 44.872 160.6 44.98 160.592 45.084C160.584 45.188 160.572 45.28 160.556 45.36H155.96C156.024 46.024 156.264 46.524 156.68 46.86C157.104 47.188 157.62 47.352 158.228 47.352C158.58 47.352 158.896 47.304 159.176 47.208C159.464 47.104 159.74 46.968 160.004 46.8L160.364 47.448C160.076 47.64 159.744 47.804 159.368 47.94C159 48.076 158.58 48.144 158.108 48.144ZM157.964 42.804C157.724 42.804 157.492 42.844 157.268 42.924C157.052 43.004 156.856 43.12 156.68 43.272C156.504 43.416 156.356 43.6 156.236 43.824C156.116 44.048 156.032 44.304 155.984 44.592H159.704C159.664 43.992 159.488 43.544 159.176 43.248C158.872 42.952 158.468 42.804 157.964 42.804ZM165.496 48.144C165.04 48.144 164.616 48.076 164.224 47.94C163.84 47.804 163.504 47.608 163.216 47.352C162.928 47.088 162.704 46.768 162.544 46.392C162.384 46.008 162.304 45.576 162.304 45.096C162.304 44.608 162.388 44.176 162.556 43.8C162.732 43.416 162.968 43.092 163.264 42.828C163.56 42.564 163.904 42.364 164.296 42.228C164.696 42.092 165.116 42.024 165.556 42.024C166.036 42.024 166.448 42.108 166.792 42.276C167.144 42.444 167.44 42.644 167.68 42.876L167.188 43.512C166.948 43.304 166.696 43.14 166.432 43.02C166.176 42.9 165.896 42.84 165.592 42.84C165.256 42.84 164.948 42.896 164.668 43.008C164.388 43.112 164.148 43.264 163.948 43.464C163.756 43.664 163.604 43.904 163.492 44.184C163.38 44.456 163.324 44.76 163.324 45.096C163.324 45.432 163.376 45.736 163.48 46.008C163.592 46.28 163.744 46.516 163.936 46.716C164.136 46.908 164.372 47.06 164.644 47.172C164.924 47.276 165.232 47.328 165.568 47.328C165.928 47.328 166.256 47.26 166.552 47.124C166.856 46.98 167.128 46.804 167.368 46.596L167.812 47.232C167.484 47.52 167.124 47.744 166.732 47.904C166.34 48.064 165.928 48.144 165.496 48.144ZM173.267 48.144C172.843 48.144 172.487 48.088 172.199 47.976C171.911 47.856 171.679 47.692 171.503 47.484C171.327 47.268 171.199 47.012 171.119 46.716C171.047 46.42 171.011 46.092 171.011 45.732V42.972H169.367V42.228L171.047 42.168L171.179 40.296H171.995V42.168H174.863V42.972H171.995V45.744C171.995 46.008 172.019 46.24 172.067 46.44C172.115 46.632 172.195 46.796 172.307 46.932C172.419 47.068 172.571 47.172 172.763 47.244C172.955 47.308 173.191 47.34 173.471 47.34C173.751 47.34 174.003 47.316 174.227 47.268C174.451 47.22 174.667 47.156 174.875 47.076L175.091 47.796C174.827 47.892 174.547 47.972 174.251 48.036C173.963 48.108 173.635 48.144 173.267 48.144ZM179.454 48.144C178.878 48.144 178.346 48.056 177.858 47.88C177.37 47.696 176.946 47.48 176.586 47.232L177.042 46.584C177.378 46.824 177.746 47.016 178.146 47.16C178.554 47.304 179.03 47.376 179.574 47.376C180.07 47.376 180.438 47.288 180.678 47.112C180.926 46.928 181.05 46.712 181.05 46.464C181.05 46.352 181.03 46.248 180.99 46.152C180.95 46.056 180.862 45.964 180.726 45.876C180.598 45.788 180.414 45.704 180.174 45.624C179.934 45.544 179.618 45.464 179.226 45.384C178.466 45.224 177.894 45.012 177.51 44.748C177.134 44.476 176.946 44.12 176.946 43.68C176.946 43.448 176.998 43.232 177.102 43.032C177.206 42.824 177.358 42.648 177.558 42.504C177.766 42.352 178.018 42.236 178.314 42.156C178.618 42.068 178.97 42.024 179.37 42.024C179.818 42.024 180.25 42.1 180.666 42.252C181.082 42.396 181.434 42.568 181.722 42.768L181.242 43.404C180.97 43.22 180.67 43.072 180.342 42.96C180.014 42.848 179.662 42.792 179.286 42.792C178.79 42.792 178.442 42.876 178.242 43.044C178.042 43.212 177.942 43.408 177.942 43.632C177.942 43.888 178.074 44.084 178.338 44.22C178.602 44.348 179.034 44.476 179.634 44.604C180.122 44.708 180.522 44.82 180.834 44.94C181.146 45.052 181.39 45.18 181.566 45.324C181.75 45.468 181.874 45.628 181.938 45.804C182.01 45.98 182.046 46.18 182.046 46.404C182.046 46.644 181.99 46.868 181.878 47.076C181.766 47.284 181.598 47.468 181.374 47.628C181.158 47.788 180.886 47.912 180.558 48C180.238 48.096 179.87 48.144 179.454 48.144Z" fill="#DDDDDD"/>
<path d="M208.264 65.776L207.964 63.076L207.94 61.756H209.26L209.236 63.076L208.936 65.776H208.264ZM215.147 70.144C214.875 70.144 214.619 70.104 214.379 70.024C214.139 69.952 213.927 69.848 213.743 69.712C213.567 69.568 213.427 69.396 213.323 69.196C213.219 68.988 213.167 68.752 213.167 68.488C213.167 68.16 213.243 67.876 213.395 67.636C213.555 67.388 213.803 67.176 214.139 67C214.483 66.824 214.923 66.68 215.459 66.568C215.995 66.456 216.639 66.368 217.391 66.304C217.383 66.104 217.351 65.916 217.295 65.74C217.239 65.564 217.151 65.412 217.031 65.284C216.911 65.148 216.751 65.04 216.551 64.96C216.359 64.88 216.123 64.84 215.843 64.84C215.459 64.84 215.091 64.916 214.739 65.068C214.387 65.212 214.075 65.368 213.803 65.536L213.419 64.864C213.563 64.768 213.731 64.672 213.923 64.576C214.123 64.472 214.331 64.38 214.547 64.3C214.771 64.22 215.007 64.156 215.255 64.108C215.503 64.052 215.755 64.024 216.011 64.024C216.811 64.024 217.403 64.244 217.787 64.684C218.179 65.116 218.375 65.696 218.375 66.424V70H217.571L217.487 69.208H217.451C217.123 69.464 216.759 69.684 216.359 69.868C215.967 70.052 215.563 70.144 215.147 70.144ZM215.411 69.352C215.747 69.352 216.075 69.28 216.395 69.136C216.723 68.984 217.055 68.768 217.391 68.488V66.952C216.767 67 216.243 67.068 215.819 67.156C215.403 67.244 215.067 67.352 214.811 67.48C214.563 67.6 214.387 67.74 214.283 67.9C214.179 68.052 214.127 68.224 214.127 68.416C214.127 68.584 214.163 68.728 214.235 68.848C214.307 68.96 214.399 69.056 214.511 69.136C214.631 69.208 214.767 69.264 214.919 69.304C215.079 69.336 215.243 69.352 215.411 69.352ZM222.463 70L220.003 64.168H220.999L222.343 67.48C222.463 67.776 222.575 68.068 222.679 68.356C222.791 68.636 222.899 68.916 223.003 69.196H223.051C223.155 68.916 223.255 68.636 223.351 68.356C223.455 68.068 223.567 67.776 223.687 67.48L225.031 64.168H225.979L223.567 70H222.463ZM229.538 70.144C229.266 70.144 229.01 70.104 228.77 70.024C228.53 69.952 228.318 69.848 228.134 69.712C227.958 69.568 227.818 69.396 227.714 69.196C227.61 68.988 227.558 68.752 227.558 68.488C227.558 68.16 227.634 67.876 227.786 67.636C227.946 67.388 228.194 67.176 228.53 67C228.874 66.824 229.314 66.68 229.85 66.568C230.386 66.456 231.03 66.368 231.782 66.304C231.774 66.104 231.742 65.916 231.686 65.74C231.63 65.564 231.542 65.412 231.422 65.284C231.302 65.148 231.142 65.04 230.942 64.96C230.75 64.88 230.514 64.84 230.234 64.84C229.85 64.84 229.482 64.916 229.13 65.068C228.778 65.212 228.466 65.368 228.194 65.536L227.81 64.864C227.954 64.768 228.122 64.672 228.314 64.576C228.514 64.472 228.722 64.38 228.938 64.3C229.162 64.22 229.398 64.156 229.646 64.108C229.894 64.052 230.146 64.024 230.402 64.024C231.202 64.024 231.794 64.244 232.178 64.684C232.57 65.116 232.766 65.696 232.766 66.424V70H231.962L231.878 69.208H231.842C231.514 69.464 231.15 69.684 230.75 69.868C230.358 70.052 229.954 70.144 229.538 70.144ZM229.802 69.352C230.138 69.352 230.466 69.28 230.786 69.136C231.114 68.984 231.446 68.768 231.782 68.488V66.952C231.158 67 230.634 67.068 230.21 67.156C229.794 67.244 229.458 67.352 229.202 67.48C228.954 67.6 228.778 67.74 228.674 67.9C228.57 68.052 228.518 68.224 228.518 68.416C228.518 68.584 228.554 68.728 228.626 68.848C228.698 68.96 228.79 69.056 228.902 69.136C229.022 69.208 229.158 69.264 229.31 69.304C229.47 69.336 229.634 69.352 229.802 69.352ZM238.509 70.144C238.085 70.144 237.729 70.088 237.441 69.976C237.153 69.856 236.921 69.692 236.745 69.484C236.569 69.268 236.441 69.012 236.361 68.716C236.289 68.42 236.253 68.092 236.253 67.732V64.972H234.609V64.228L236.289 64.168L236.421 62.296H237.237V64.168H240.105V64.972H237.237V67.744C237.237 68.008 237.261 68.24 237.309 68.44C237.357 68.632 237.437 68.796 237.549 68.932C237.661 69.068 237.813 69.172 238.005 69.244C238.197 69.308 238.433 69.34 238.713 69.34C238.993 69.34 239.245 69.316 239.469 69.268C239.693 69.22 239.909 69.156 240.117 69.076L240.333 69.796C240.069 69.892 239.789 69.972 239.493 70.036C239.205 70.108 238.877 70.144 238.509 70.144ZM243.929 70.144C243.657 70.144 243.401 70.104 243.161 70.024C242.921 69.952 242.709 69.848 242.525 69.712C242.349 69.568 242.209 69.396 242.105 69.196C242.001 68.988 241.949 68.752 241.949 68.488C241.949 68.16 242.025 67.876 242.177 67.636C242.337 67.388 242.585 67.176 242.921 67C243.265 66.824 243.705 66.68 244.241 66.568C244.777 66.456 245.421 66.368 246.173 66.304C246.165 66.104 246.133 65.916 246.077 65.74C246.021 65.564 245.933 65.412 245.813 65.284C245.693 65.148 245.533 65.04 245.333 64.96C245.141 64.88 244.905 64.84 244.625 64.84C244.241 64.84 243.873 64.916 243.521 65.068C243.169 65.212 242.857 65.368 242.585 65.536L242.201 64.864C242.345 64.768 242.513 64.672 242.705 64.576C242.905 64.472 243.113 64.38 243.329 64.3C243.553 64.22 243.789 64.156 244.037 64.108C244.285 64.052 244.537 64.024 244.793 64.024C245.593 64.024 246.185 64.244 246.569 64.684C246.961 65.116 247.157 65.696 247.157 66.424V70H246.353L246.269 69.208H246.233C245.905 69.464 245.541 69.684 245.141 69.868C244.749 70.052 244.345 70.144 243.929 70.144ZM244.193 69.352C244.529 69.352 244.857 69.28 245.177 69.136C245.505 68.984 245.837 68.768 246.173 68.488V66.952C245.549 67 245.025 67.068 244.601 67.156C244.185 67.244 243.849 67.352 243.593 67.48C243.345 67.6 243.169 67.74 243.065 67.9C242.961 68.052 242.909 68.224 242.909 68.416C242.909 68.584 242.945 68.728 243.017 68.848C243.089 68.96 243.181 69.056 243.293 69.136C243.413 69.208 243.549 69.264 243.701 69.304C243.861 69.336 244.025 69.352 244.193 69.352ZM249.924 70V64.168H250.74L250.824 65.548H250.86C251.164 65.076 251.536 64.704 251.976 64.432C252.424 64.16 252.92 64.024 253.464 64.024C253.68 64.024 253.88 64.044 254.064 64.084C254.248 64.116 254.432 64.176 254.616 64.264L254.388 65.116C254.18 65.044 254.004 64.992 253.86 64.96C253.724 64.928 253.54 64.912 253.308 64.912C252.868 64.912 252.444 65.04 252.036 65.296C251.636 65.544 251.26 65.972 250.908 66.58V70H249.924ZM259.087 70.144C258.511 70.144 257.979 70.056 257.491 69.88C257.003 69.696 256.579 69.48 256.219 69.232L256.675 68.584C257.011 68.824 257.379 69.016 257.779 69.16C258.187 69.304 258.663 69.376 259.207 69.376C259.703 69.376 260.071 69.288 260.311 69.112C260.559 68.928 260.683 68.712 260.683 68.464C260.683 68.352 260.663 68.248 260.623 68.152C260.583 68.056 260.495 67.964 260.359 67.876C260.231 67.788 260.047 67.704 259.807 67.624C259.567 67.544 259.251 67.464 258.859 67.384C258.099 67.224 257.527 67.012 257.143 66.748C256.767 66.476 256.579 66.12 256.579 65.68C256.579 65.448 256.631 65.232 256.735 65.032C256.839 64.824 256.991 64.648 257.191 64.504C257.399 64.352 257.651 64.236 257.947 64.156C258.251 64.068 258.603 64.024 259.003 64.024C259.451 64.024 259.883 64.1 260.299 64.252C260.715 64.396 261.067 64.568 261.355 64.768L260.875 65.404C260.603 65.22 260.303 65.072 259.975 64.96C259.647 64.848 259.295 64.792 258.919 64.792C258.423 64.792 258.075 64.876 257.875 65.044C257.675 65.212 257.575 65.408 257.575 65.632C257.575 65.888 257.707 66.084 257.971 66.22C258.235 66.348 258.667 66.476 259.267 66.604C259.755 66.708 260.155 66.82 260.467 66.94C260.779 67.052 261.023 67.18 261.199 67.324C261.383 67.468 261.507 67.628 261.571 67.804C261.643 67.98 261.679 68.18 261.679 68.404C261.679 68.644 261.623 68.868 261.511 69.076C261.399 69.284 261.231 69.468 261.007 69.628C260.791 69.788 260.519 69.912 260.191 70C259.871 70.096 259.503 70.144 259.087 70.144ZM265.827 65.776L265.527 63.076L265.503 61.756H266.823L266.799 63.076L266.499 65.776H265.827Z" fill="#3ECF8E"/>
<path d="M1 33H49V55H1V33Z" fill="#1E1E1E"/>
<path d="M30.6807 48V47.412C31.3287 46.836 31.9007 46.316 32.3967 45.852C32.9007 45.388 33.3207 44.964 33.6567 44.58C34.0007 44.188 34.2607 43.824 34.4367 43.488C34.6127 43.152 34.7007 42.824 34.7007 42.504C34.7007 42.064 34.5647 41.704 34.2927 41.424C34.0207 41.144 33.6007 41.004 33.0327 41.004C32.6727 41.004 32.3367 41.096 32.0247 41.28C31.7207 41.456 31.4447 41.672 31.1967 41.928L30.6327 41.364C30.9767 41.012 31.3447 40.732 31.7367 40.524C32.1367 40.308 32.6087 40.2 33.1527 40.2C33.5367 40.2 33.8807 40.256 34.1847 40.368C34.4967 40.472 34.7607 40.624 34.9767 40.824C35.1927 41.016 35.3567 41.252 35.4687 41.532C35.5887 41.812 35.6487 42.12 35.6487 42.456C35.6487 42.816 35.5607 43.18 35.3847 43.548C35.2167 43.908 34.9767 44.284 34.6647 44.676C34.3527 45.06 33.9807 45.464 33.5487 45.888C33.1167 46.304 32.6407 46.748 32.1207 47.22C32.3607 47.204 32.6007 47.188 32.8407 47.172C33.0807 47.156 33.3167 47.148 33.5487 47.148H36.0687V48H30.6807Z" fill="#828282"/>
<path d="M63.952 70.144C63.248 70.144 62.732 69.948 62.404 69.556C62.084 69.156 61.924 68.568 61.924 67.792V64.168H62.92V67.66C62.92 68.212 63.02 68.624 63.22 68.896C63.428 69.16 63.776 69.292 64.264 69.292C64.6 69.292 64.904 69.208 65.176 69.04C65.448 68.864 65.748 68.588 66.076 68.212V64.168H67.06V70H66.256L66.172 68.98H66.124C65.828 69.324 65.504 69.604 65.152 69.82C64.808 70.036 64.408 70.144 63.952 70.144ZM71.9153 70.144C71.3393 70.144 70.8073 70.056 70.3193 69.88C69.8313 69.696 69.4073 69.48 69.0473 69.232L69.5033 68.584C69.8393 68.824 70.2073 69.016 70.6073 69.16C71.0153 69.304 71.4913 69.376 72.0353 69.376C72.5313 69.376 72.8993 69.288 73.1393 69.112C73.3873 68.928 73.5113 68.712 73.5113 68.464C73.5113 68.352 73.4913 68.248 73.4513 68.152C73.4113 68.056 73.3233 67.964 73.1873 67.876C73.0593 67.788 72.8753 67.704 72.6353 67.624C72.3953 67.544 72.0793 67.464 71.6873 67.384C70.9273 67.224 70.3553 67.012 69.9713 66.748C69.5953 66.476 69.4073 66.12 69.4073 65.68C69.4073 65.448 69.4593 65.232 69.5633 65.032C69.6673 64.824 69.8193 64.648 70.0193 64.504C70.2273 64.352 70.4793 64.236 70.7753 64.156C71.0793 64.068 71.4313 64.024 71.8313 64.024C72.2793 64.024 72.7113 64.1 73.1273 64.252C73.5433 64.396 73.8953 64.568 74.1833 64.768L73.7033 65.404C73.4313 65.22 73.1313 65.072 72.8033 64.96C72.4753 64.848 72.1233 64.792 71.7473 64.792C71.2513 64.792 70.9033 64.876 70.7033 65.044C70.5033 65.212 70.4033 65.408 70.4033 65.632C70.4033 65.888 70.5353 66.084 70.7993 66.22C71.0633 66.348 71.4953 66.476 72.0953 66.604C72.5833 66.708 72.9833 66.82 73.2953 66.94C73.6073 67.052 73.8513 67.18 74.0273 67.324C74.2113 67.468 74.3353 67.628 74.3993 67.804C74.4713 67.98 74.5073 68.18 74.5073 68.404C74.5073 68.644 74.4513 68.868 74.3393 69.076C74.2273 69.284 74.0593 69.468 73.8353 69.628C73.6193 69.788 73.3473 69.912 73.0193 70C72.6993 70.096 72.3313 70.144 71.9153 70.144ZM79.1826 70V64.972H76.4706V64.168H80.1666V70H79.1826ZM79.5666 62.944C79.3426 62.944 79.1546 62.876 79.0026 62.74C78.8506 62.596 78.7746 62.408 78.7746 62.176C78.7746 61.944 78.8506 61.76 79.0026 61.624C79.1546 61.48 79.3426 61.408 79.5666 61.408C79.7906 61.408 79.9786 61.48 80.1306 61.624C80.2826 61.76 80.3586 61.944 80.3586 62.176C80.3586 62.408 80.2826 62.596 80.1306 62.74C79.9786 62.876 79.7906 62.944 79.5666 62.944ZM83.7019 70V64.168H84.5179L84.6019 65.164H84.6499C84.9539 64.836 85.2819 64.564 85.6339 64.348C85.9859 64.132 86.3899 64.024 86.8459 64.024C87.5419 64.024 88.0499 64.224 88.3699 64.624C88.6979 65.016 88.8619 65.6 88.8619 66.376V70H87.8779V66.508C87.8779 65.956 87.7739 65.548 87.5659 65.284C87.3579 65.012 87.0139 64.876 86.5339 64.876C86.3579 64.876 86.1939 64.9 86.0419 64.948C85.8979 64.988 85.7539 65.052 85.6099 65.14C85.4659 65.228 85.3179 65.34 85.1659 65.476C85.0139 65.604 84.8539 65.756 84.6859 65.932V70H83.7019ZM93.3333 72.688C92.4773 72.688 91.8133 72.548 91.3413 72.268C90.8773 71.988 90.6453 71.588 90.6453 71.068C90.6453 70.836 90.7253 70.608 90.8853 70.384C91.0533 70.16 91.2933 69.956 91.6053 69.772V69.724C91.4453 69.636 91.3053 69.516 91.1853 69.364C91.0653 69.212 91.0053 69.012 91.0053 68.764C91.0053 68.58 91.0653 68.392 91.1853 68.2C91.3053 68 91.4773 67.824 91.7013 67.672V67.624C91.5013 67.472 91.3293 67.272 91.1853 67.024C91.0493 66.768 90.9813 66.464 90.9813 66.112C90.9813 65.792 91.0413 65.504 91.1613 65.248C91.2893 64.992 91.4573 64.776 91.6653 64.6C91.8733 64.416 92.1133 64.276 92.3853 64.18C92.6653 64.076 92.9613 64.024 93.2733 64.024C93.5933 64.024 93.8813 64.072 94.1373 64.168H96.5493V64.972H95.0373C95.1733 65.108 95.2893 65.28 95.3853 65.488C95.4813 65.696 95.5293 65.916 95.5293 66.148C95.5293 66.46 95.4693 66.74 95.3493 66.988C95.2373 67.236 95.0773 67.448 94.8693 67.624C94.6693 67.792 94.4293 67.924 94.1493 68.02C93.8773 68.108 93.5853 68.152 93.2733 68.152C93.1213 68.152 92.9573 68.136 92.7812 68.104C92.6133 68.064 92.4493 68.008 92.2893 67.936C91.9853 68.128 91.8333 68.352 91.8333 68.608C91.8333 68.84 91.9373 69.012 92.1453 69.124C92.3613 69.228 92.6613 69.28 93.0453 69.28H94.3533C95.1053 69.28 95.6613 69.384 96.0213 69.592C96.3893 69.8 96.5733 70.152 96.5733 70.648C96.5733 70.92 96.4973 71.18 96.3453 71.428C96.1933 71.676 95.9773 71.892 95.6973 72.076C95.4173 72.26 95.0773 72.408 94.6773 72.52C94.2773 72.632 93.8293 72.688 93.3333 72.688ZM93.2733 67.492C93.6493 67.492 93.9653 67.368 94.2213 67.12C94.4853 66.872 94.6173 66.536 94.6173 66.112C94.6173 65.912 94.5813 65.728 94.5093 65.56C94.4373 65.392 94.3413 65.248 94.2213 65.128C94.1013 65.008 93.9573 64.916 93.7893 64.852C93.6293 64.78 93.4573 64.744 93.2733 64.744C93.0893 64.744 92.9133 64.78 92.7453 64.852C92.5853 64.916 92.4453 65.008 92.3253 65.128C92.2053 65.248 92.1093 65.392 92.0373 65.56C91.9653 65.728 91.9293 65.912 91.9293 66.112C91.9293 66.536 92.0613 66.872 92.3253 67.12C92.5893 67.368 92.9053 67.492 93.2733 67.492ZM93.4053 71.968C93.7413 71.968 94.0453 71.936 94.3173 71.872C94.5893 71.808 94.8213 71.72 95.0133 71.608C95.2053 71.504 95.3493 71.38 95.4453 71.236C95.5493 71.1 95.6013 70.956 95.6013 70.804C95.6013 70.524 95.4893 70.336 95.2653 70.24C95.0493 70.144 94.7173 70.096 94.2693 70.096H93.1293C92.9613 70.096 92.8013 70.088 92.6493 70.072C92.5053 70.064 92.3693 70.04 92.2413 70C91.9613 70.152 91.7653 70.308 91.6533 70.468C91.5493 70.636 91.4973 70.804 91.4973 70.972C91.4973 71.276 91.6573 71.516 91.9773 71.692C92.3053 71.876 92.7813 71.968 93.4053 71.968Z" fill="#569CD6"/>
<path d="M112.023 28.255V20.654H112.771L112.848 21.336H112.881C113.13 21.1013 113.416 20.907 113.739 20.753C114.069 20.599 114.399 20.522 114.729 20.522C115.088 20.522 115.404 20.588 115.675 20.72C115.954 20.8447 116.185 21.028 116.368 21.27C116.559 21.5047 116.702 21.7907 116.797 22.128C116.892 22.458 116.94 22.832 116.94 23.25C116.94 23.7047 116.874 24.1117 116.742 24.471C116.61 24.823 116.43 25.1237 116.203 25.373C115.983 25.6223 115.726 25.813 115.433 25.945C115.14 26.0697 114.832 26.132 114.509 26.132C114.26 26.132 113.988 26.0733 113.695 25.956C113.409 25.8313 113.149 25.659 112.914 25.439H112.881L112.925 26.451V28.255H112.023ZM114.355 25.373C114.839 25.373 115.235 25.186 115.543 24.812C115.851 24.438 116.005 23.9173 116.005 23.25C116.005 22.9567 115.976 22.689 115.917 22.447C115.858 22.205 115.767 21.9997 115.642 21.831C115.525 21.655 115.371 21.5193 115.18 21.424C114.989 21.3287 114.762 21.281 114.498 21.281C114.263 21.281 114.01 21.347 113.739 21.479C113.475 21.6037 113.204 21.8053 112.925 22.084V24.746C113.182 24.9733 113.438 25.1347 113.695 25.23C113.952 25.3253 114.172 25.373 114.355 25.373ZM120.896 26.132C120.544 26.132 120.206 26.0697 119.884 25.945C119.568 25.8203 119.29 25.6407 119.048 25.406C118.806 25.164 118.611 24.8707 118.465 24.526C118.325 24.174 118.256 23.778 118.256 23.338C118.256 22.8907 118.325 22.4947 118.465 22.15C118.611 21.798 118.806 21.501 119.048 21.259C119.29 21.017 119.568 20.8337 119.884 20.709C120.206 20.5843 120.544 20.522 120.896 20.522C121.248 20.522 121.581 20.5843 121.897 20.709C122.219 20.8337 122.502 21.017 122.744 21.259C122.986 21.501 123.176 21.798 123.316 22.15C123.462 22.4947 123.536 22.8907 123.536 23.338C123.536 23.778 123.462 24.174 123.316 24.526C123.176 24.8707 122.986 25.164 122.744 25.406C122.502 25.6407 122.219 25.8203 121.897 25.945C121.581 26.0697 121.248 26.132 120.896 26.132ZM120.896 25.384C121.152 25.384 121.383 25.3363 121.589 25.241C121.801 25.1383 121.981 24.999 122.128 24.823C122.282 24.6397 122.399 24.4233 122.48 24.174C122.56 23.9247 122.601 23.646 122.601 23.338C122.601 23.03 122.56 22.7513 122.48 22.502C122.399 22.2453 122.282 22.0253 122.128 21.842C121.981 21.6587 121.801 21.5193 121.589 21.424C121.383 21.3213 121.152 21.27 120.896 21.27C120.639 21.27 120.404 21.3213 120.192 21.424C119.986 21.5193 119.807 21.6587 119.653 21.842C119.506 22.0253 119.392 22.2453 119.312 22.502C119.231 22.7513 119.191 23.03 119.191 23.338C119.191 23.646 119.231 23.9247 119.312 24.174C119.392 24.4233 119.506 24.6397 119.653 24.823C119.807 24.999 119.986 25.1383 120.192 25.241C120.404 25.3363 120.639 25.384 120.896 25.384ZM128.668 26.132C128.096 26.132 127.66 25.9707 127.359 25.648C127.059 25.3253 126.908 24.845 126.908 24.207V18.905H125.005V18.168H127.81V24.273C127.81 24.669 127.906 24.955 128.096 25.131C128.287 25.2997 128.544 25.384 128.866 25.384C129.182 25.384 129.515 25.3033 129.867 25.142L130.098 25.813C129.849 25.9157 129.622 25.9927 129.416 26.044C129.211 26.1027 128.962 26.132 128.668 26.132ZM134.263 26V21.391H131.777V20.654H135.165V26H134.263ZM134.615 19.532C134.41 19.532 134.237 19.4697 134.098 19.345C133.959 19.213 133.889 19.0407 133.889 18.828C133.889 18.6153 133.959 18.4467 134.098 18.322C134.237 18.19 134.41 18.124 134.615 18.124C134.82 18.124 134.993 18.19 135.132 18.322C135.271 18.4467 135.341 18.6153 135.341 18.828C135.341 19.0407 135.271 19.213 135.132 19.345C134.993 19.4697 134.82 19.532 134.615 19.532ZM141.189 26.132C140.771 26.132 140.382 26.0697 140.023 25.945C139.671 25.8203 139.363 25.6407 139.099 25.406C138.835 25.164 138.629 24.8707 138.483 24.526C138.336 24.174 138.263 23.778 138.263 23.338C138.263 22.8907 138.34 22.4947 138.494 22.15C138.655 21.798 138.871 21.501 139.143 21.259C139.414 21.017 139.729 20.8337 140.089 20.709C140.455 20.5843 140.84 20.522 141.244 20.522C141.684 20.522 142.061 20.599 142.377 20.753C142.699 20.907 142.971 21.0903 143.191 21.303L142.74 21.886C142.52 21.6953 142.289 21.545 142.047 21.435C141.812 21.325 141.555 21.27 141.277 21.27C140.969 21.27 140.686 21.3213 140.43 21.424C140.173 21.5193 139.953 21.6587 139.77 21.842C139.594 22.0253 139.454 22.2453 139.352 22.502C139.249 22.7513 139.198 23.03 139.198 23.338C139.198 23.646 139.245 23.9247 139.341 24.174C139.443 24.4233 139.583 24.6397 139.759 24.823C139.942 24.999 140.158 25.1383 140.408 25.241C140.664 25.3363 140.947 25.384 141.255 25.384C141.585 25.384 141.885 25.3217 142.157 25.197C142.435 25.065 142.685 24.9037 142.905 24.713L143.312 25.296C143.011 25.56 142.681 25.7653 142.322 25.912C141.962 26.0587 141.585 26.132 141.189 26.132ZM145.42 28.299C145.156 28.299 144.921 28.2623 144.716 28.189L144.903 27.474C144.976 27.496 145.053 27.5143 145.134 27.529C145.222 27.5437 145.306 27.551 145.387 27.551C145.761 27.551 146.065 27.441 146.3 27.221C146.534 27.0083 146.718 26.737 146.85 26.407L147.015 26.011L144.518 20.654H145.431L146.74 23.613C146.842 23.8477 146.949 24.1007 147.059 24.372C147.176 24.6433 147.29 24.9073 147.4 25.164H147.444C147.539 24.9073 147.634 24.647 147.73 24.383C147.832 24.1117 147.928 23.855 148.016 23.613L149.182 20.654H150.04L147.686 26.44C147.583 26.704 147.466 26.9497 147.334 27.177C147.202 27.4043 147.044 27.5987 146.861 27.76C146.677 27.9287 146.465 28.0607 146.223 28.156C145.988 28.2513 145.72 28.299 145.42 28.299Z" fill="#569CD6"/>
<path d="M1 77H49V99H1V77Z" fill="#1E1E1E"/>
<path d="M34.2207 92V89.888H30.2727V89.228L34.1007 84.344H35.1567V89.096H36.3447V89.888H35.1567V92H34.2207ZM31.3647 89.096H34.2207V86.72C34.2287 86.512 34.2367 86.288 34.2447 86.048C34.2527 85.8 34.2647 85.572 34.2807 85.364H34.2207C34.1007 85.548 33.9727 85.736 33.8367 85.928C33.7007 86.112 33.5687 86.296 33.4407 86.48L31.3647 89.096Z" fill="#828282"/>
<g filter="url(#filter0_d_1_992)">
<path d="M442 12C442 9.79086 443.791 8 446 8H514C516.209 8 518 9.79086 518 12V34C518 36.2091 516.209 38 514 38H446C443.791 38 442 36.2091 442 34V12Z" fill="#181818"/>
<path d="M442.5 12C442.5 10.067 444.067 8.5 446 8.5H514C515.933 8.5 517.5 10.067 517.5 12V34C517.5 35.933 515.933 37.5 514 37.5H446C444.067 37.5 442.5 35.933 442.5 34V12Z" stroke="#666666"/>
</g>
<path d="M484.76 24.293C484.654 25.1953 484.32 25.8926 483.758 26.3848C483.199 26.873 482.455 27.1172 481.525 27.1172C480.518 27.1172 479.709 26.7559 479.1 26.0332C478.494 25.3105 478.191 24.3438 478.191 23.1328V22.3125C478.191 21.5195 478.332 20.8223 478.613 20.2207C478.898 19.6191 479.301 19.1582 479.82 18.8379C480.34 18.5137 480.941 18.3516 481.625 18.3516C482.531 18.3516 483.258 18.6055 483.805 19.1133C484.352 19.6172 484.67 20.3164 484.76 21.2109H483.629C483.531 20.5312 483.318 20.0391 482.99 19.7344C482.666 19.4297 482.211 19.2773 481.625 19.2773C480.906 19.2773 480.342 19.543 479.932 20.0742C479.525 20.6055 479.322 21.3613 479.322 22.3418V23.168C479.322 24.0938 479.516 24.8301 479.902 25.377C480.289 25.9238 480.83 26.1973 481.525 26.1973C482.15 26.1973 482.629 26.0566 482.961 25.7754C483.297 25.4902 483.52 24.9961 483.629 24.293H484.76ZM485.844 23.7715C485.844 23.1504 485.965 22.5918 486.207 22.0957C486.453 21.5996 486.793 21.2168 487.227 20.9473C487.664 20.6777 488.162 20.543 488.721 20.543C489.584 20.543 490.281 20.8418 490.812 21.4395C491.348 22.0371 491.615 22.832 491.615 23.8242V23.9004C491.615 24.5176 491.496 25.0723 491.258 25.5645C491.023 26.0527 490.686 26.4336 490.244 26.707C489.807 26.9805 489.303 27.1172 488.732 27.1172C487.873 27.1172 487.176 26.8184 486.641 26.2207C486.109 25.623 485.844 24.832 485.844 23.8477V23.7715ZM486.934 23.9004C486.934 24.6035 487.096 25.168 487.42 25.5938C487.748 26.0195 488.186 26.2324 488.732 26.2324C489.283 26.2324 489.721 26.0176 490.045 25.5879C490.369 25.1543 490.531 24.5488 490.531 23.7715C490.531 23.0762 490.365 22.5137 490.033 22.084C489.705 21.6504 489.268 21.4336 488.721 21.4336C488.186 21.4336 487.754 21.6465 487.426 22.0723C487.098 22.498 486.934 23.1074 486.934 23.9004ZM498.33 23.9004C498.33 24.8652 498.109 25.6426 497.668 26.2324C497.227 26.8223 496.629 27.1172 495.875 27.1172C495.105 27.1172 494.5 26.873 494.059 26.3848V29.4375H492.975V20.6602H493.965L494.018 21.3633C494.459 20.8164 495.072 20.543 495.857 20.543C496.619 20.543 497.221 20.8301 497.662 21.4043C498.107 21.9785 498.33 22.7773 498.33 23.8008V23.9004ZM497.246 23.7773C497.246 23.0625 497.094 22.498 496.789 22.084C496.484 21.6699 496.066 21.4629 495.535 21.4629C494.879 21.4629 494.387 21.7539 494.059 22.3359V25.3652C494.383 25.9434 494.879 26.2324 495.547 26.2324C496.066 26.2324 496.479 26.0273 496.783 25.6172C497.092 25.2031 497.246 24.5898 497.246 23.7773ZM501.717 25.4121L503.193 20.6602H504.354L501.805 27.9785C501.41 29.0332 500.783 29.5605 499.924 29.5605L499.719 29.543L499.314 29.4668V28.5879L499.607 28.6113C499.975 28.6113 500.26 28.5371 500.463 28.3887C500.67 28.2402 500.84 27.9688 500.973 27.5742L501.213 26.9297L498.951 20.6602H500.135L501.717 25.4121Z" fill="white"/>
<path d="M464.667 21.25H459.417C458.772 21.25 458.25 21.7723 458.25 22.4167V27.6667C458.25 28.311 458.772 28.8333 459.417 28.8333H464.667C465.311 28.8333 465.833 28.311 465.833 27.6667V22.4167C465.833 21.7723 465.311 21.25 464.667 21.25Z" stroke="black" stroke-width="0.583333" stroke-linecap="round" stroke-linejoin="round"/>
<path d="M455.917 24.7501H455.333C455.024 24.7501 454.727 24.6272 454.508 24.4084C454.29 24.1896 454.167 23.8928 454.167 23.5834V18.3334C454.167 18.024 454.29 17.7272 454.508 17.5085C454.727 17.2897 455.024 17.1667 455.333 17.1667H460.583C460.893 17.1667 461.189 17.2897 461.408 17.5085C461.627 17.7272 461.75 18.024 461.75 18.3334V18.9167" stroke="black" stroke-width="0.583333" stroke-linecap="round" stroke-linejoin="round"/>
<rect x="524.938" width="1" height="178" fill="#2A2A2A"/>
<defs>
<filter id="filter0_d_1_992" x="442" y="8" width="76" height="32" filterUnits="userSpaceOnUse" color-interpolation-filters="sRGB">
<feFlood flood-opacity="0" result="BackgroundImageFix"/>
<feColorMatrix in="SourceAlpha" type="matrix" values="0 0 0 0 0 0 0 0 0 0 0 0 0 0 0 0 0 0 127 0" result="hardAlpha"/>
<feOffset dy="2"/>
<feColorMatrix type="matrix" values="0 0 0 0 0 0 0 0 0 0 0 0 0 0 0 0 0 0 0.043 0"/>
<feBlend mode="normal" in2="BackgroundImageFix" result="effect1_dropShadow_1_992"/>
<feBlend mode="normal" in="SourceGraphic" in2="effect1_dropShadow_1_992" result="shape"/>
</filter>
</defs>
</svg>
