<svg width="73" height="13" viewBox="0 0 73 13" fill="none" xmlns="http://www.w3.org/2000/svg">
<path fill-rule="evenodd" clip-rule="evenodd" d="M6 0L5.59 0.76L0.39 10.29L0 11H12L11.61 10.29L6.42 0.76L6 0ZM57.61 10.59H56.26V1.32H57.61V10.59ZM31.35 10.59V1.75H34.63C37.33 1.75 38.9 3.36 38.9 6.15C38.9 8.95 37.34 10.59 34.63 10.59H31.35ZM34.47 2.93H32.76V9.4H34.47C36.37 9.4 37.47 8.22 37.47 6.16C37.47 4.12 36.35 2.93 34.47 2.93ZM43.52 9.63C44.34 9.63 44.9 9.34 45.15 8.8H46.45C46.16 9.98 45.05 10.71 43.49 10.71C41.52 10.71 40.32 9.4 40.32 7.27C40.32 5.16 41.55 3.8 43.48 3.8C45.38 3.8 46.54 5.07 46.54 7.16V7.61H41.7V7.67C41.74 8.87 42.44 9.64 43.52 9.64V9.63ZM45.16 6.66C45.13 5.58 44.47 4.88 43.47 4.88C42.47 4.88 41.77 5.58 41.7 6.66H45.16ZM51.72 3.82C51.2847 3.80917 50.8546 3.91698 50.4758 4.1319C50.0971 4.34681 49.784 4.66072 49.57 5.04H49.47V3.94H48.17V12.8H49.52V9.58H49.62C49.98 10.28 50.76 10.7 51.73 10.7C53.46 10.7 54.56 9.36 54.56 7.26C54.56 5.15 53.46 3.82 51.72 3.82ZM51.33 9.57C50.2 9.57 49.49 8.68 49.49 7.26C49.49 5.83 50.2 4.94 51.34 4.94C52.49 4.94 53.17 5.81 53.17 7.26C53.17 8.71 52.49 9.57 51.33 9.57ZM62.53 10.71C64.54 10.71 65.77 9.41 65.77 7.26C65.77 5.11 64.53 3.8 62.54 3.8C60.54 3.8 59.3 5.11 59.3 7.26C59.3 9.41 60.53 10.71 62.54 10.71H62.53ZM62.53 9.59C61.36 9.59 60.7 8.74 60.7 7.26C60.7 5.78 61.36 4.92 62.54 4.92C63.71 4.92 64.38 5.78 64.38 7.26C64.38 8.74 63.71 9.59 62.54 9.59H62.53ZM70.44 10.89C69.86 12.49 69.21 13 67.81 13C67.71 13 67.38 12.99 67.25 12.97V11.89C67.36 11.91 67.57 11.92 67.69 11.92C68.34 11.92 68.7 11.65 68.93 10.95L69.03 10.6L66.55 3.93H68.03L69.75 9.26H69.85L71.56 3.93H73L70.44 10.89Z" fill="white"/>
</svg>
