<svg width="16" height="17" viewBox="0 0 16 17" fill="none" xmlns="http://www.w3.org/2000/svg">
<path d="M11 16.5V13.5975C11.0281 13.2398 10.9798 12.8803 10.8583 12.5428C10.7367 12.2053 10.5447 11.8975 10.295 11.64C12.65 11.3775 15.125 10.485 15.125 6.38995C15.1248 5.34282 14.722 4.33585 14 3.57745C14.3419 2.66133 14.3177 1.64872 13.9325 0.749953C13.9325 0.749953 13.0475 0.487453 11 1.85995C9.28101 1.39407 7.46899 1.39407 5.75 1.85995C3.7025 0.487453 2.8175 0.749953 2.8175 0.749953C2.43228 1.64872 2.40811 2.66133 2.75 3.57745C2.0226 4.34148 1.61939 5.35755 1.625 6.41245C1.625 10.4775 4.1 11.37 6.455 11.6625C6.20825 11.9174 6.01795 12.2215 5.89648 12.5549C5.77502 12.8883 5.72511 13.2435 5.75 13.5975V16.5M5.75 14.25C2 15.375 2 12.375 0.5 12L5.75 14.25Z" stroke="black" stroke-width="0.75" stroke-linecap="round" stroke-linejoin="round"/>
</svg>
