<svg width="12" height="12" viewBox="0 0 12 12" fill="none" xmlns="http://www.w3.org/2000/svg">
<path d="M8 2.66666C8.35362 2.66666 8.69276 2.80713 8.94281 3.05718C9.19286 3.30723 9.33333 3.64637 9.33333 3.99999L8 2.66666ZM12 3.99999C12.0002 4.62477 11.854 5.24091 11.5732 5.79902C11.2924 6.35714 10.8847 6.84171 10.3829 7.21391C9.88109 7.5861 9.29906 7.83558 8.68347 7.94233C8.06788 8.04909 7.43584 8.01015 6.838 7.82866L5.33333 9.33332H4V10.6667H2.66667V12H0.666667C0.489856 12 0.320286 11.9298 0.195262 11.8047C0.0702379 11.6797 0 11.5101 0 11.3333V9.60932C3.77583e-05 9.43252 0.0703004 9.26298 0.195333 9.13799L4.17133 5.16199C4.00497 4.612 3.95904 4.03262 4.0367 3.46329C4.11435 2.89395 4.31375 2.34804 4.62133 1.86269C4.92891 1.37734 5.33744 0.963953 5.81913 0.650669C6.30082 0.337385 6.84434 0.131556 7.41272 0.0471928C7.9811 -0.0371706 8.56098 0.0019115 9.11289 0.161779C9.66481 0.321647 10.1758 0.598547 10.6111 0.973632C11.0464 1.34872 11.3958 1.81318 11.6354 2.33542C11.8751 2.85765 11.9994 3.42539 12 3.99999Z" fill="#C4C4C4"/>
</svg>
