<svg width="20" height="20" viewBox="0 0 20 20" fill="none" xmlns="http://www.w3.org/2000/svg">
<path fill-rule="evenodd" clip-rule="evenodd" d="M7.353 0.939098C7.49145 1.07776 7.58611 1.25405 7.62522 1.44605C7.66433 1.63806 7.64618 1.83733 7.573 2.0191C6.98754 3.47415 6.8427 5.06919 7.15649 6.6059C7.47028 8.1426 8.22885 9.55317 9.33789 10.6622C10.4469 11.7712 11.8575 12.5298 13.3942 12.8436C14.9309 13.1574 16.526 13.0126 17.981 12.4271C18.1628 12.3541 18.362 12.336 18.5539 12.3752C18.7459 12.4144 18.9221 12.5092 19.0606 12.6476C19.1992 12.7861 19.2941 12.9622 19.3334 13.1541C19.3728 13.346 19.3549 13.5453 19.282 13.7271C18.5375 15.5796 17.2557 17.167 15.6016 18.2849C13.9474 19.4028 11.9965 20.0002 10 20.0001C4.477 20.0001 0 15.5231 0 10.0001C0 5.7931 2.598 2.1951 6.273 0.718098C6.45477 0.644923 6.65404 0.626763 6.84605 0.665876C7.03805 0.704988 7.21434 0.799649 7.353 0.938098V0.939098Z" fill="#A1A1A1"/>
</svg>
