<svg width="11" height="7" viewBox="0 0 11 7" fill="none" xmlns="http://www.w3.org/2000/svg">
<path fill-rule="evenodd" clip-rule="evenodd" d="M0.293031 1.293C0.480558 1.10553 0.734866 1.00021 1.00003 1.00021C1.26519 1.00021 1.5195 1.10553 1.70703 1.293L5.00003 4.586L8.29303 1.293C8.38528 1.19749 8.49562 1.12131 8.61763 1.0689C8.73963 1.01649 8.87085 0.988904 9.00363 0.987751C9.13641 0.986597 9.26809 1.0119 9.39098 1.06218C9.51388 1.11246 9.62553 1.18671 9.71943 1.28061C9.81332 1.3745 9.88757 1.48615 9.93785 1.60905C9.98813 1.73194 10.0134 1.86362 10.0123 1.9964C10.0111 2.12918 9.98354 2.2604 9.93113 2.38241C9.87872 2.50441 9.80254 2.61475 9.70703 2.707L5.70703 6.707C5.5195 6.89447 5.26519 6.99979 5.00003 6.99979C4.73487 6.99979 4.48056 6.89447 4.29303 6.707L0.293031 2.707C0.10556 2.51947 0.000244141 2.26517 0.000244141 2C0.000244141 1.73484 0.10556 1.48053 0.293031 1.293Z" fill="white"/>
</svg>
