<svg width="44" height="24" viewBox="0 0 44 24" fill="none" xmlns="http://www.w3.org/2000/svg">
<path d="M0 12C0 5.37258 5.37258 0 12 0H32C38.6274 0 44 5.37258 44 12C44 18.6274 38.6274 24 32 24H12C5.37258 24 0 18.6274 0 12Z" fill="#444444"/>
<g filter="url(#filter0_d_1_1728)">
<path d="M22 12C22 6.47715 26.4772 2 32 2C37.5228 2 42 6.47715 42 12C42 17.5228 37.5228 22 32 22C26.4772 22 22 17.5228 22 12Z" fill="#1F1F1F"/>
</g>
<defs>
<filter id="filter0_d_1_1728" x="22" y="2" width="20" height="20" filterUnits="userSpaceOnUse" color-interpolation-filters="sRGB">
<feFlood flood-opacity="0" result="BackgroundImageFix"/>
<feColorMatrix in="SourceAlpha" type="matrix" values="0 0 0 0 0 0 0 0 0 0 0 0 0 0 0 0 0 0 127 0" result="hardAlpha"/>
<feOffset/>
<feColorMatrix type="matrix" values="0 0 0 0 1 0 0 0 0 1 0 0 0 0 1 0 0 0 1 0"/>
<feBlend mode="normal" in2="BackgroundImageFix" result="effect1_dropShadow_1_1728"/>
<feBlend mode="normal" in="SourceGraphic" in2="effect1_dropShadow_1_1728" result="shape"/>
</filter>
</defs>
</svg>
