<svg width="17" height="15" viewBox="0 0 17 15" fill="none" xmlns="http://www.w3.org/2000/svg">
<path d="M2.375 4H14.625H2.375ZM2.375 4C1.91087 4 1.46575 3.81563 1.13756 3.48744C0.809374 3.15925 0.625 2.71413 0.625 2.25C0.625 1.78587 0.809374 1.34075 1.13756 1.01256C1.46575 0.684374 1.91087 0.5 2.375 0.5H14.625C15.0891 0.5 15.5342 0.684374 15.8624 1.01256C16.1906 1.34075 16.375 1.78587 16.375 2.25C16.375 2.71413 16.1906 3.15925 15.8624 3.48744C15.5342 3.81563 15.0891 4 14.625 4H2.375ZM2.375 4V12.75C2.375 13.2141 2.55937 13.6592 2.88756 13.9874C3.21575 14.3156 3.66087 14.5 4.125 14.5H12.875C13.3391 14.5 13.7842 14.3156 14.1124 13.9874C14.4406 13.6592 14.625 13.2141 14.625 12.75V4H2.375ZM6.75 7.5H10.25H6.75Z" fill="#6A6A6A"/>
</svg>
